<?xml version="1.0" encoding="UTF-8" standalone="no"?>
<svg
   xmlns:dc="http://purl.org/dc/elements/1.1/"
   xmlns:cc="http://creativecommons.org/ns#"
   xmlns:rdf="http://www.w3.org/1999/02/22-rdf-syntax-ns#"
   xmlns:svg="http://www.w3.org/2000/svg"
   xmlns="http://www.w3.org/2000/svg"
   id="svg8"
   version="1.1"
   viewBox="0 0 17.5 17.500001"
   height="17.5mm"
   width="17.5mm">
  <defs
     id="defs2" />
  <metadata
     id="metadata5">
    <rdf:RDF>
      <cc:Work
         rdf:about="">
        <dc:format>image/svg+xml</dc:format>
        <dc:type
           rdf:resource="http://purl.org/dc/dcmitype/StillImage" />
        <dc:title></dc:title>
      </cc:Work>
    </rdf:RDF>
  </metadata>
  <g
     transform="translate(0.60084558,3.4318752)"
     style="display:inline"
     id="layer2">
    <rect
       y="-3.4318752"
       x="-0.60084558"
       height="17.5"
       width="17.5"
       id="rect4586"
       style="fill:#000000;fill-opacity:1;stroke-width:0.3629472" />
  </g>
  <g
     transform="translate(-23.487577,-4.1850179)"
     id="layer1">
    <g
       id="text3715"
       style="font-style:normal;font-weight:normal;font-size:10.58333302px;line-height:1.25;font-family:sans-serif;letter-spacing:0px;word-spacing:0px;fill:#e1c358;fill-opacity:1;stroke:none;stroke-width:0.26458332"
       aria-label="{NM}">
      <path
         id="path4687"
         style="font-style:normal;font-variant:normal;font-weight:normal;font-stretch:normal;fill:#e1c358;fill-opacity:1;stroke-width:0.26458332"
         d="m 25.019756,7.6168931 h 0.910167 0.709083 v 0.9101666 h -0.709083 v 3.7888333 l -0.592667,0.624417 0.592667,0.613833 v 3.788833 h 0.709083 v 0.910167 h -0.709083 -0.910167 v -0.910167 -3.429 l -0.3175,-0.338666 -0.613833,-0.635 0.613833,-0.645584 0.3175,-0.338666 V 8.5270597 Z" />
      <path
         id="path4689"
         style="font-style:normal;font-variant:normal;font-weight:normal;font-stretch:normal;fill:#e1c358;fill-opacity:1;stroke-width:0.26458332"
         d="m 30.163245,9.458393 v 7.884583 0.910167 h 0.899583 v -8.79475 c 0,-0.6773333 -0.359833,-1.2594166 -0.899583,-1.5874999 -0.275167,-0.15875 -0.592667,-0.254 -0.941917,-0.254 -0.338667,0 -0.656167,0.09525 -0.931333,0.254 -0.53975,0.3280833 -0.910167,0.9101666 -0.910167,1.5874999 v 8.79475 h 0.910167 V 17.342976 9.458393 c 0,-0.508 0.423333,-0.9313333 0.931333,-0.9313333 0.518583,0 0.941917,0.4233333 0.941917,0.9313333 z" />
      <path
         id="path4691"
         style="font-style:normal;font-variant:normal;font-weight:normal;font-stretch:normal;fill:#e1c358;fill-opacity:1;stroke-width:0.26458332"
         d="M 32.71382,17.342976 V 9.1620597 c 0,-0.34925 0.28575,-0.635 0.635,-0.635 0.34925,0 0.645583,0.28575 0.645583,0.635 v 8.1809163 0.910167 H 34.90457 V 9.1620597 c 0,-0.34925 0.28575,-0.635 0.635,-0.635 0.34925,0 0.645583,0.28575 0.645583,0.635 v 8.1809163 0.910167 H 37.09532 V 9.1620597 c 0,-0.6244166 -0.381,-1.1641666 -0.910167,-1.4075833 -0.201083,-0.084667 -0.41275,-0.1375833 -0.645583,-0.1375833 -0.22225,0 -0.4445,0.052917 -0.635,0.1375833 -0.169334,0.084667 -0.328083,0.1905 -0.455083,0.3175 -0.127,-0.127 -0.28575,-0.2328333 -0.455084,-0.3175 -0.201083,-0.084667 -0.41275,-0.1375833 -0.645583,-0.1375833 -0.22225,0 -0.4445,0.052917 -0.635,0.1375833 -0.53975,0.2434167 -0.910167,0.7831667 -0.910167,1.4075833 v 9.0910833 h 0.910167 z" />
      <path
         id="path4693"
         style="font-style:normal;font-variant:normal;font-weight:normal;font-stretch:normal;fill:#e1c358;fill-opacity:1;stroke-width:0.26458332"
         d="m 39.444816,7.6168931 h -0.899583 -0.709084 v 0.9101666 h 0.709084 v 3.7888333 l 0.592666,0.624417 -0.592666,0.613833 v 3.788833 h -0.709084 v 0.910167 h 0.709084 0.899583 v -0.910167 -3.429 l 0.3175,-0.338666 0.624416,-0.635 -0.624416,-0.645584 -0.3175,-0.338666 V 8.5270597 Z" />
    </g>
  </g>
</svg>
