<svg id="svg" version="1.1" xmlns="http://www.w3.org/2000/svg" xmlns:xlink="http://www.w3.org/1999/xlink" width="400" height="400" viewBox="0, 0, 400,400"><g id="svgg"><path id="path0" d="M178.700 0.500 C 178.574 0.875,177.212 0.969,173.262 0.878 C 168.482 0.767,167.967 0.822,167.725 1.478 C 167.280 2.682,166.735 2.813,163.277 2.544 C 160.112 2.299,159.944 2.327,159.731 3.143 C 159.482 4.095,159.019 4.174,154.649 4.013 C 153.075 3.955,151.994 4.067,152.123 4.275 C 152.738 5.271,151.599 5.782,149.020 5.666 C 146.601 5.557,146.400 5.612,146.400 6.374 C 146.400 7.124,146.161 7.200,143.800 7.200 C 141.467 7.200,141.200 7.282,141.200 8.000 C 141.200 8.711,140.933 8.800,138.800 8.800 C 136.667 8.800,136.400 8.889,136.400 9.600 C 136.400 10.303,136.133 10.400,134.200 10.400 C 132.267 10.400,132.000 10.497,132.000 11.200 C 132.000 11.903,131.733 12.000,129.800 12.000 C 127.903 12.000,127.600 12.105,127.600 12.762 C 127.600 13.419,127.382 13.495,126.010 13.311 C 124.556 13.116,124.383 13.192,124.000 14.200 C 123.617 15.208,123.444 15.284,121.988 15.089 C 120.548 14.896,120.373 14.970,120.148 15.865 C 119.922 16.766,119.763 16.830,118.350 16.592 C 116.961 16.357,116.800 16.417,116.800 17.165 C 116.800 17.888,116.559 18.000,115.000 18.000 C 113.739 18.000,112.963 18.237,112.407 18.793 C 111.971 19.229,111.071 19.628,110.407 19.678 C 109.654 19.736,109.115 20.039,108.973 20.485 C 108.812 20.994,108.339 21.200,107.336 21.200 C 106.262 21.200,105.875 21.391,105.716 22.000 C 105.600 22.443,105.170 22.800,104.753 22.800 C 104.339 22.800,104.021 22.935,104.047 23.100 C 104.204 24.094,103.872 24.400,102.637 24.400 C 101.472 24.400,101.305 24.516,101.484 25.200 C 101.673 25.923,101.496 26.000,99.647 26.000 C 97.867 26.000,97.600 26.104,97.600 26.800 C 97.600 27.448,97.333 27.600,96.200 27.600 C 95.067 27.600,94.800 27.752,94.800 28.400 C 94.800 28.840,94.551 29.200,94.247 29.200 C 93.942 29.200,93.593 29.583,93.471 30.051 C 93.293 30.733,93.029 30.861,92.149 30.692 C 90.793 30.433,90.000 30.710,90.000 31.443 C 90.000 31.749,89.743 32.000,89.428 32.000 C 89.113 32.000,88.798 32.405,88.728 32.900 C 88.615 33.696,88.404 33.785,86.900 33.673 C 85.407 33.561,85.200 33.647,85.200 34.373 C 85.200 34.841,84.940 35.200,84.600 35.200 C 84.227 35.200,84.000 35.578,84.000 36.200 C 84.000 37.078,83.828 37.200,82.587 37.200 C 81.701 37.200,81.089 37.423,80.945 37.800 C 80.818 38.130,80.374 38.400,79.957 38.400 C 79.467 38.400,79.200 38.682,79.200 39.200 C 79.200 39.644,78.933 40.000,78.600 40.000 C 78.267 40.000,78.000 40.356,78.000 40.800 C 78.000 41.345,77.733 41.600,77.163 41.600 C 76.662 41.600,76.241 41.921,76.116 42.400 C 76.000 42.843,75.570 43.200,75.153 43.200 C 74.667 43.200,74.400 43.483,74.400 44.000 C 74.400 44.667,74.133 44.800,72.800 44.800 C 71.644 44.800,71.200 44.967,71.200 45.400 C 71.200 45.730,71.020 46.000,70.800 46.000 C 70.580 46.000,70.400 46.364,70.400 46.809 C 70.400 47.283,69.987 47.806,69.400 48.073 C 68.850 48.323,68.400 48.757,68.400 49.037 C 68.400 49.317,68.057 49.655,67.637 49.788 C 67.217 49.921,66.773 50.294,66.650 50.615 C 66.526 50.937,66.149 51.200,65.813 51.200 C 65.476 51.200,65.200 51.487,65.200 51.837 C 65.200 52.188,64.840 52.569,64.400 52.684 C 63.960 52.799,63.600 53.121,63.600 53.400 C 63.600 53.679,63.240 54.001,62.800 54.116 C 62.360 54.231,62.000 54.612,62.000 54.963 C 62.000 55.370,61.651 55.600,61.033 55.600 C 59.683 55.600,58.800 55.994,58.800 56.596 C 58.800 56.877,58.440 57.201,58.000 57.316 C 57.387 57.476,57.200 57.862,57.200 58.963 C 57.200 60.133,57.052 60.400,56.400 60.400 C 55.883 60.400,55.600 60.667,55.600 61.153 C 55.600 61.570,55.243 62.000,54.800 62.116 C 54.360 62.231,54.000 62.612,54.000 62.963 C 54.000 63.313,53.730 63.600,53.400 63.600 C 53.070 63.600,52.800 63.887,52.800 64.237 C 52.800 64.588,52.440 64.969,52.000 65.084 C 51.557 65.200,51.200 65.630,51.200 66.047 C 51.200 66.461,50.942 66.800,50.627 66.800 C 50.312 66.800,49.940 67.160,49.800 67.600 C 49.660 68.040,49.292 68.400,48.981 68.400 C 48.670 68.400,48.302 68.850,48.164 69.400 C 47.984 70.118,47.643 70.400,46.957 70.400 C 46.430 70.400,46.000 70.580,46.000 70.800 C 46.000 71.020,45.730 71.200,45.400 71.200 C 44.970 71.200,44.800 71.639,44.800 72.753 C 44.800 73.970,44.627 74.352,44.000 74.516 C 43.560 74.631,43.200 75.012,43.200 75.363 C 43.200 75.713,43.016 76.000,42.790 76.000 C 42.565 76.000,42.209 76.450,42.000 77.000 C 41.767 77.612,41.306 78.000,40.810 78.000 C 40.364 78.000,40.000 78.249,40.000 78.553 C 40.000 78.858,39.640 79.201,39.200 79.316 C 38.587 79.476,38.400 79.862,38.400 80.963 C 38.400 81.753,38.216 82.400,37.990 82.400 C 37.765 82.400,37.409 82.850,37.200 83.400 C 36.967 84.012,36.506 84.400,36.010 84.400 C 35.375 84.400,35.200 84.662,35.200 85.613 C 35.200 86.321,34.951 86.921,34.600 87.055 C 34.270 87.182,34.000 87.607,34.000 87.999 C 34.000 88.433,33.596 88.815,32.971 88.971 C 32.084 89.194,31.977 89.385,32.192 90.363 C 32.394 91.284,32.287 91.536,31.620 91.711 C 31.123 91.841,30.800 92.255,30.800 92.763 C 30.800 93.333,30.545 93.600,30.000 93.600 C 29.352 93.600,29.200 93.867,29.200 95.000 C 29.200 95.939,29.014 96.400,28.635 96.400 C 28.290 96.400,27.968 97.008,27.807 97.961 C 27.626 99.030,27.300 99.585,26.771 99.723 C 26.319 99.842,26.000 100.272,26.000 100.763 C 26.000 101.333,25.745 101.600,25.200 101.600 C 24.578 101.600,24.400 101.867,24.400 102.800 C 24.400 103.873,24.060 104.199,23.100 104.047 C 22.935 104.021,22.800 104.720,22.800 105.600 C 22.800 106.933,22.667 107.200,22.000 107.200 C 21.333 107.200,21.200 107.467,21.200 108.800 C 21.200 110.133,21.067 110.400,20.400 110.400 C 19.733 110.400,19.600 110.667,19.600 112.000 C 19.600 113.333,19.467 113.600,18.800 113.600 C 18.133 113.600,18.000 113.867,18.000 115.200 C 18.000 116.556,17.873 116.800,17.165 116.800 C 16.417 116.800,16.357 116.961,16.592 118.350 C 16.830 119.763,16.766 119.922,15.865 120.148 C 14.970 120.373,14.896 120.548,15.089 121.988 C 15.284 123.444,15.208 123.617,14.200 124.000 C 13.192 124.383,13.116 124.556,13.311 126.010 C 13.495 127.382,13.419 127.600,12.762 127.600 C 12.105 127.600,12.000 127.903,12.000 129.800 C 12.000 131.733,11.903 132.000,11.200 132.000 C 10.489 132.000,10.400 132.267,10.400 134.400 C 10.400 136.533,10.311 136.800,9.600 136.800 C 8.897 136.800,8.800 137.067,8.800 139.000 C 8.800 140.979,8.714 141.200,7.947 141.200 C 7.176 141.200,7.116 141.361,7.321 142.884 C 7.646 145.310,7.267 146.800,6.325 146.800 C 5.631 146.800,5.563 147.052,5.670 149.218 C 5.788 151.598,5.247 152.724,4.275 152.123 C 4.067 151.994,3.955 153.075,4.013 154.649 C 4.174 159.019,4.095 159.482,3.143 159.731 C 2.327 159.944,2.299 160.112,2.544 163.277 C 2.813 166.735,2.682 167.280,1.478 167.725 C 0.822 167.967,0.767 168.482,0.878 173.262 C 0.969 177.212,0.875 178.574,0.500 178.700 C -0.226 178.942,-0.232 221.456,0.494 221.698 C 0.857 221.819,0.957 223.104,0.873 226.552 C 0.750 231.599,0.941 232.874,1.769 232.556 C 2.516 232.270,2.756 233.945,2.500 237.668 C 2.295 240.670,2.321 240.800,3.143 240.800 C 4.081 240.800,4.111 240.963,4.004 245.500 C 3.950 247.780,4.018 248.000,4.772 248.000 C 5.536 248.000,5.600 248.233,5.600 251.000 C 5.600 253.733,5.671 254.000,6.400 254.000 C 7.275 254.000,7.344 254.295,7.215 257.472 C 7.136 259.394,7.190 259.528,7.965 259.325 C 8.744 259.121,8.800 259.269,8.800 261.553 C 8.800 263.733,8.887 264.000,9.600 264.000 C 10.311 264.000,10.400 264.267,10.400 266.400 C 10.400 268.533,10.489 268.800,11.200 268.800 C 11.912 268.800,12.000 269.067,12.000 271.213 C 12.000 272.988,12.158 273.686,12.600 273.855 C 12.942 273.987,13.200 274.583,13.200 275.243 C 13.200 275.879,13.380 276.423,13.600 276.450 C 13.820 276.478,14.225 276.525,14.500 276.554 C 14.818 276.589,15.000 277.264,15.000 278.404 C 15.000 279.895,15.136 280.219,15.800 280.315 C 16.476 280.412,16.600 280.734,16.600 282.397 C 16.600 283.760,16.805 284.525,17.266 284.883 C 17.633 285.167,17.993 285.725,18.066 286.121 C 18.140 286.518,18.307 286.788,18.439 286.721 C 19.142 286.364,20.038 287.841,19.923 289.168 C 19.823 290.331,19.932 290.589,20.503 290.544 C 21.232 290.486,21.883 292.019,21.436 292.741 C 21.080 293.318,21.605 294.400,22.243 294.400 C 22.616 294.400,22.800 294.875,22.800 295.837 C 22.800 296.938,22.987 297.324,23.600 297.484 C 24.040 297.599,24.400 297.942,24.400 298.247 C 24.400 298.551,24.760 298.800,25.200 298.800 C 25.848 298.800,26.000 299.067,26.000 300.200 C 26.000 301.333,26.152 301.600,26.800 301.600 C 27.244 301.600,27.600 301.867,27.600 302.200 C 27.600 302.530,27.960 303.160,28.400 303.600 C 28.844 304.044,29.200 304.933,29.200 305.600 C 29.200 306.555,29.373 306.800,30.047 306.800 C 30.729 306.800,30.857 306.990,30.706 307.780 C 30.560 308.545,30.703 308.786,31.359 308.880 C 31.878 308.954,32.249 309.344,32.327 309.896 C 32.397 310.390,32.811 311.043,33.247 311.348 C 33.842 311.765,33.974 312.164,33.776 312.952 C 33.554 313.837,33.646 314.000,34.367 314.000 C 34.909 314.000,35.358 314.365,35.600 315.000 C 35.809 315.550,36.169 316.000,36.400 316.000 C 36.631 316.000,36.991 316.450,37.200 317.000 C 37.409 317.550,37.765 318.000,37.990 318.000 C 38.216 318.000,38.400 318.540,38.400 319.200 C 38.400 320.138,38.577 320.400,39.210 320.400 C 39.706 320.400,40.167 320.788,40.400 321.400 C 40.609 321.950,40.965 322.400,41.190 322.400 C 41.416 322.400,41.600 322.760,41.600 323.200 C 41.600 323.733,41.867 324.000,42.400 324.000 C 43.067 324.000,43.200 324.267,43.200 325.600 C 43.200 326.933,43.333 327.200,44.000 327.200 C 44.444 327.200,44.800 327.467,44.800 327.800 C 44.800 328.130,45.148 328.400,45.573 328.400 C 45.998 328.400,46.460 328.760,46.600 329.200 C 46.740 329.640,47.112 330.000,47.427 330.000 C 47.742 330.000,48.000 330.360,48.000 330.800 C 48.000 331.250,48.267 331.600,48.610 331.600 C 48.945 331.600,49.391 332.050,49.600 332.600 C 49.809 333.150,50.165 333.600,50.390 333.600 C 50.616 333.600,50.800 334.041,50.800 334.580 C 50.800 335.477,52.934 337.993,53.700 337.998 C 53.865 337.999,54.000 338.348,54.000 338.773 C 54.000 339.198,54.360 339.660,54.800 339.800 C 55.240 339.940,55.600 340.402,55.600 340.827 C 55.600 341.333,55.876 341.600,56.400 341.600 C 56.844 341.600,57.200 341.867,57.200 342.200 C 57.200 342.533,57.556 342.800,58.000 342.800 C 58.533 342.800,58.800 343.067,58.800 343.600 C 58.800 344.133,59.067 344.400,59.600 344.400 C 60.133 344.400,60.400 344.667,60.400 345.200 C 60.400 345.733,60.667 346.000,61.200 346.000 C 61.665 346.000,62.000 346.267,62.000 346.637 C 62.000 346.988,62.343 347.365,62.763 347.474 C 63.183 347.584,63.616 348.017,63.726 348.437 C 63.875 349.009,64.285 349.200,65.363 349.200 C 66.320 349.200,66.800 349.385,66.800 349.753 C 66.800 350.058,67.160 350.401,67.600 350.516 C 68.040 350.631,68.400 351.012,68.400 351.363 C 68.400 351.713,68.589 352.000,68.820 352.000 C 69.051 352.000,69.883 352.625,70.670 353.389 C 71.456 354.153,72.437 354.885,72.850 355.016 C 73.313 355.163,73.600 355.627,73.600 356.227 C 73.600 356.762,73.780 357.200,74.000 357.200 C 74.220 357.200,74.400 357.470,74.400 357.800 C 74.400 358.133,74.756 358.400,75.200 358.400 C 75.733 358.400,76.000 358.667,76.000 359.200 C 76.000 359.867,76.267 360.000,77.600 360.000 C 78.933 360.000,79.200 360.133,79.200 360.800 C 79.200 361.244,79.467 361.600,79.800 361.600 C 80.133 361.600,80.400 361.956,80.400 362.400 C 80.400 362.980,80.667 363.200,81.371 363.200 C 81.977 363.200,82.392 363.463,82.477 363.900 C 82.576 364.407,82.998 364.600,84.007 364.600 C 85.147 364.600,85.423 364.763,85.528 365.500 C 85.608 366.064,85.933 366.400,86.398 366.400 C 86.807 366.400,87.200 366.706,87.272 367.079 C 87.365 367.559,87.814 367.765,88.802 367.779 C 89.940 367.796,90.224 367.968,90.328 368.700 C 90.398 369.195,90.648 369.600,90.884 369.600 C 91.119 369.600,91.537 369.908,91.812 370.285 C 92.154 370.752,92.772 370.938,93.757 370.872 C 95.069 370.784,95.200 370.869,95.200 371.813 C 95.200 372.743,95.335 372.838,96.500 372.726 C 97.590 372.620,97.821 372.746,97.928 373.500 C 98.007 374.058,98.333 374.400,98.785 374.400 C 99.186 374.400,99.618 374.670,99.745 375.000 C 99.879 375.351,100.479 375.600,101.187 375.600 C 102.133 375.600,102.400 375.776,102.400 376.400 C 102.400 377.093,102.667 377.200,104.400 377.200 C 106.133 377.200,106.400 377.307,106.400 378.000 C 106.400 378.648,106.667 378.800,107.800 378.800 C 108.933 378.800,109.200 378.952,109.200 379.600 C 109.200 380.267,109.467 380.400,110.800 380.400 C 112.166 380.400,112.400 380.525,112.400 381.252 C 112.400 381.988,112.578 382.077,113.700 381.906 C 115.382 381.649,116.000 381.891,116.000 382.808 C 116.000 383.427,116.223 383.513,117.349 383.331 C 118.654 383.119,119.378 383.568,119.394 384.600 C 119.397 384.820,120.146 385.054,121.059 385.121 C 122.348 385.215,122.766 385.428,122.936 386.077 C 123.117 386.769,123.381 386.877,124.477 386.710 C 126.215 386.444,126.800 386.689,126.800 387.684 C 126.800 388.424,126.990 388.484,128.800 388.310 C 130.688 388.128,130.800 388.170,130.800 389.059 C 130.800 389.868,130.997 390.000,132.200 390.000 C 133.068 390.000,133.905 390.305,134.403 390.803 C 135.089 391.489,135.527 391.569,137.403 391.348 C 139.461 391.106,139.600 391.144,139.600 391.945 C 139.600 392.737,139.807 392.800,142.400 392.800 C 144.933 392.800,145.200 392.876,145.200 393.600 C 145.200 394.324,145.467 394.400,148.000 394.400 C 150.533 394.400,150.800 394.476,150.800 395.200 C 150.800 395.937,151.067 396.000,154.200 396.000 C 157.369 396.000,157.600 396.056,157.600 396.826 C 157.600 397.590,157.818 397.648,160.500 397.597 C 165.495 397.501,165.600 397.518,165.600 398.408 C 165.600 399.178,165.831 399.213,170.483 399.157 C 173.802 399.116,175.414 399.242,175.516 399.549 C 175.726 400.178,224.668 400.195,224.878 399.565 C 224.974 399.279,226.826 399.145,230.314 399.173 C 233.224 399.197,235.583 399.077,235.555 398.908 C 235.362 397.715,235.700 397.600,239.400 397.600 C 242.933 397.600,243.200 397.544,243.200 396.800 C 243.200 396.067,243.467 396.000,246.400 396.000 C 249.333 396.000,249.600 395.933,249.600 395.200 C 249.600 394.476,249.867 394.400,252.400 394.400 C 254.933 394.400,255.200 394.324,255.200 393.600 C 255.200 392.884,255.467 392.800,257.753 392.800 C 260.025 392.800,260.331 392.706,260.530 391.945 C 260.734 391.166,260.933 391.115,262.781 391.360 C 264.710 391.616,264.828 391.577,265.209 390.577 C 265.587 389.582,265.712 389.540,267.571 389.796 C 269.243 390.026,269.657 389.943,270.367 389.233 C 270.894 388.706,271.715 388.400,272.600 388.400 C 273.733 388.400,274.000 388.248,274.000 387.600 C 274.000 386.874,276.016 386.451,278.076 386.745 C 278.227 386.766,278.464 386.427,278.603 385.992 C 278.778 385.440,279.209 385.200,280.027 385.200 C 280.911 385.200,281.200 385.014,281.200 384.443 C 281.200 383.536,282.118 383.114,283.394 383.434 C 284.103 383.612,284.388 383.469,284.589 382.834 C 284.798 382.175,285.184 382.000,286.427 382.000 C 287.733 382.000,288.000 381.864,288.000 381.200 C 288.000 380.533,288.267 380.400,289.600 380.400 C 290.933 380.400,291.200 380.267,291.200 379.600 C 291.200 378.952,291.467 378.800,292.600 378.800 C 293.733 378.800,294.000 378.648,294.000 378.000 C 294.000 377.333,294.267 377.200,295.600 377.200 C 296.933 377.200,297.200 377.067,297.200 376.400 C 297.200 375.719,297.467 375.600,299.000 375.600 C 300.333 375.600,300.800 375.444,300.800 375.000 C 300.800 374.667,301.156 374.400,301.600 374.400 C 302.040 374.400,302.729 374.071,303.131 373.669 C 303.532 373.268,304.162 372.823,304.531 372.682 C 304.899 372.541,305.200 372.036,305.200 371.561 C 305.200 370.778,305.348 370.721,306.800 370.954 C 308.221 371.181,308.400 371.120,308.400 370.405 C 308.400 369.867,308.665 369.600,309.200 369.600 C 309.733 369.600,310.000 369.333,310.000 368.800 C 310.000 368.148,310.267 368.000,311.437 368.000 C 312.538 368.000,312.924 367.813,313.084 367.200 C 313.200 366.757,313.630 366.400,314.047 366.400 C 314.533 366.400,314.800 366.117,314.800 365.600 C 314.800 364.948,315.067 364.800,316.237 364.800 C 317.338 364.800,317.724 364.613,317.884 364.000 C 317.999 363.560,318.342 363.200,318.647 363.200 C 318.951 363.200,319.200 362.861,319.200 362.447 C 319.200 362.030,319.557 361.600,320.000 361.484 C 320.440 361.369,320.800 360.988,320.800 360.637 C 320.800 360.149,321.220 360.000,322.600 360.000 C 324.133 360.000,324.400 359.881,324.400 359.200 C 324.400 358.760,324.580 358.400,324.800 358.400 C 325.020 358.400,325.200 358.023,325.200 357.563 C 325.200 357.062,325.521 356.641,326.000 356.516 C 326.440 356.401,326.800 356.143,326.800 355.943 C 326.800 355.744,327.250 355.409,327.800 355.200 C 328.350 354.991,328.800 354.545,328.800 354.210 C 328.800 353.867,329.150 353.600,329.600 353.600 C 330.044 353.600,330.400 353.333,330.400 353.000 C 330.400 352.489,331.382 352.182,332.488 352.349 C 332.646 352.373,332.968 352.034,333.202 351.596 C 333.436 351.158,333.982 350.800,334.414 350.800 C 334.933 350.800,335.200 350.529,335.200 350.000 C 335.200 349.560,335.380 349.200,335.600 349.200 C 335.820 349.200,336.000 348.916,336.000 348.569 C 336.000 347.859,338.107 345.600,338.769 345.600 C 339.006 345.600,339.200 345.330,339.200 345.000 C 339.200 344.670,339.376 344.400,339.591 344.400 C 340.101 344.400,344.400 340.101,344.400 339.591 C 344.400 339.376,344.670 339.200,345.000 339.200 C 345.330 339.200,345.600 339.006,345.600 338.769 C 345.600 338.107,347.859 336.000,348.569 336.000 C 348.916 336.000,349.200 335.820,349.200 335.600 C 349.200 335.380,349.560 335.200,350.000 335.200 C 350.529 335.200,350.800 334.933,350.800 334.414 C 350.800 333.982,351.158 333.436,351.596 333.202 C 352.034 332.968,352.373 332.646,352.349 332.488 C 352.182 331.382,352.489 330.400,353.000 330.400 C 353.333 330.400,353.600 330.044,353.600 329.600 C 353.600 329.150,353.867 328.800,354.210 328.800 C 354.545 328.800,354.991 328.350,355.200 327.800 C 355.409 327.250,355.744 326.800,355.943 326.800 C 356.143 326.800,356.401 326.440,356.516 326.000 C 356.631 325.560,357.003 325.200,357.342 325.200 C 358.474 325.200,360.000 323.394,360.000 322.054 C 360.000 321.249,360.199 320.800,360.557 320.800 C 360.863 320.800,361.226 320.350,361.364 319.800 C 361.526 319.154,361.896 318.800,362.408 318.800 C 363.021 318.800,363.200 318.529,363.200 317.600 C 363.200 316.826,363.403 316.400,363.772 316.400 C 364.087 316.400,364.402 315.995,364.472 315.500 C 364.554 314.922,364.922 314.554,365.500 314.472 C 365.995 314.402,366.400 314.096,366.400 313.792 C 366.400 313.488,366.697 313.074,367.060 312.870 C 367.454 312.650,367.736 311.957,367.760 311.151 C 367.792 310.069,367.980 309.775,368.700 309.672 C 369.434 309.568,369.600 309.291,369.600 308.172 C 369.600 307.249,369.787 306.800,370.172 306.800 C 370.487 306.800,370.802 306.395,370.872 305.900 C 370.954 305.322,371.322 304.954,371.900 304.872 C 372.395 304.802,372.800 304.577,372.800 304.372 C 372.800 304.167,373.160 303.640,373.600 303.200 C 374.040 302.760,374.400 302.040,374.400 301.600 C 374.400 301.156,374.667 300.800,375.000 300.800 C 375.444 300.800,375.600 300.333,375.600 299.000 C 375.600 297.467,375.719 297.200,376.400 297.200 C 377.067 297.200,377.200 296.933,377.200 295.600 C 377.200 294.267,377.333 294.000,378.000 294.000 C 378.648 294.000,378.800 293.733,378.800 292.600 C 378.800 291.467,378.952 291.200,379.600 291.200 C 380.267 291.200,380.400 290.933,380.400 289.600 C 380.400 288.267,380.533 288.000,381.200 288.000 C 381.864 288.000,382.000 287.733,382.000 286.427 C 382.000 285.184,382.175 284.798,382.834 284.589 C 383.469 284.388,383.612 284.103,383.434 283.394 C 383.122 282.149,383.530 281.200,384.377 281.200 C 384.930 281.200,385.062 280.858,385.035 279.500 C 385.004 278.011,385.116 277.784,385.933 277.668 C 386.782 277.548,386.855 277.366,386.733 275.668 C 386.615 274.010,386.697 273.786,387.463 273.677 C 388.217 273.570,388.318 273.318,388.263 271.677 C 388.206 269.993,388.296 269.786,389.133 269.668 C 390.010 269.544,390.050 269.417,389.796 267.572 C 389.540 265.712,389.581 265.587,390.577 265.209 C 391.577 264.828,391.616 264.710,391.360 262.781 C 391.115 260.933,391.166 260.734,391.945 260.530 C 392.706 260.331,392.800 260.025,392.800 257.753 C 392.800 255.467,392.884 255.200,393.600 255.200 C 394.324 255.200,394.400 254.933,394.400 252.400 C 394.400 249.867,394.476 249.600,395.200 249.600 C 395.933 249.600,396.000 249.333,396.000 246.400 C 396.000 243.467,396.067 243.200,396.800 243.200 C 397.544 243.200,397.600 242.933,397.600 239.400 C 397.600 235.705,397.715 235.365,398.900 235.553 C 399.065 235.579,399.200 233.170,399.200 230.200 C 399.200 226.867,399.353 224.800,399.600 224.800 C 400.199 224.800,400.147 175.716,399.549 175.516 C 399.242 175.414,399.116 173.802,399.157 170.483 C 399.213 165.831,399.178 165.600,398.408 165.600 C 397.518 165.600,397.501 165.495,397.597 160.500 C 397.648 157.818,397.590 157.600,396.826 157.600 C 396.056 157.600,396.000 157.369,396.000 154.200 C 396.000 151.067,395.937 150.800,395.200 150.800 C 394.476 150.800,394.400 150.533,394.400 148.000 C 394.400 145.467,394.324 145.200,393.600 145.200 C 392.891 145.200,392.800 144.933,392.800 142.847 C 392.800 140.776,392.697 140.466,391.941 140.269 C 391.145 140.060,391.100 139.867,391.332 137.649 C 391.568 135.387,391.532 135.246,390.691 135.127 C 389.886 135.012,389.808 134.798,389.887 132.900 C 389.968 130.945,389.910 130.800,389.046 130.800 C 388.175 130.800,388.129 130.678,388.306 128.834 C 388.482 127.006,388.429 126.859,387.548 126.734 C 386.696 126.614,386.611 126.424,386.711 124.865 C 386.804 123.422,386.689 123.096,386.032 122.924 C 385.434 122.768,385.213 122.315,385.121 121.059 C 385.054 120.146,384.820 119.397,384.600 119.394 C 383.568 119.378,383.119 118.654,383.331 117.349 C 383.513 116.223,383.427 116.000,382.808 116.000 C 381.896 116.000,381.649 115.383,381.900 113.734 C 382.067 112.640,381.965 112.450,381.147 112.334 C 380.315 112.216,380.216 112.019,380.331 110.700 C 380.445 109.406,380.349 109.200,379.631 109.200 C 378.948 109.200,378.800 108.951,378.800 107.800 C 378.800 106.667,378.648 106.400,378.000 106.400 C 377.307 106.400,377.200 106.133,377.200 104.400 C 377.200 102.667,377.093 102.400,376.400 102.400 C 375.776 102.400,375.600 102.133,375.600 101.187 C 375.600 100.479,375.351 99.879,375.000 99.745 C 374.670 99.618,374.400 99.186,374.400 98.785 C 374.400 98.333,374.057 98.007,373.500 97.927 C 372.799 97.828,372.616 97.561,372.672 96.724 C 372.727 95.896,372.544 95.620,371.872 95.524 C 371.328 95.447,370.953 95.069,370.875 94.519 C 370.806 94.034,370.407 93.529,369.989 93.397 C 369.396 93.208,369.279 92.904,369.458 92.011 C 369.653 91.034,369.549 90.847,368.747 90.733 C 368.187 90.654,367.748 90.277,367.659 89.800 C 367.578 89.360,367.261 88.856,366.955 88.680 C 366.650 88.504,366.400 87.799,366.400 87.113 C 366.400 86.428,366.286 85.980,366.147 86.119 C 365.692 86.575,364.400 85.589,364.400 84.786 C 364.400 84.354,364.130 84.000,363.800 84.000 C 363.394 84.000,363.200 83.594,363.200 82.746 C 363.200 81.430,361.680 79.600,360.587 79.600 C 360.273 79.600,359.902 79.150,359.764 78.600 C 359.626 78.050,359.263 77.600,358.957 77.600 C 358.594 77.600,358.400 77.142,358.400 76.289 C 358.400 74.939,357.314 73.600,356.220 73.600 C 355.906 73.600,355.075 72.800,354.374 71.823 C 353.672 70.846,352.851 69.952,352.549 69.836 C 352.247 69.720,352.000 69.349,352.000 69.013 C 352.000 68.676,351.713 68.400,351.363 68.400 C 351.012 68.400,350.631 68.040,350.516 67.600 C 350.401 67.160,350.058 66.800,349.753 66.800 C 349.385 66.800,349.200 66.320,349.200 65.363 C 349.200 64.285,349.009 63.875,348.437 63.726 C 348.017 63.616,347.584 63.183,347.474 62.763 C 347.365 62.343,346.988 62.000,346.637 62.000 C 346.267 62.000,346.000 61.665,346.000 61.200 C 346.000 60.667,345.733 60.400,345.200 60.400 C 344.667 60.400,344.400 60.133,344.400 59.600 C 344.400 59.067,344.133 58.800,343.600 58.800 C 343.067 58.800,342.800 58.533,342.800 58.000 C 342.800 57.556,342.533 57.200,342.200 57.200 C 341.867 57.200,341.600 56.844,341.600 56.400 C 341.600 55.876,341.333 55.600,340.827 55.600 C 340.402 55.600,339.940 55.240,339.800 54.800 C 339.660 54.360,339.198 54.000,338.773 54.000 C 338.348 54.000,337.999 53.865,337.998 53.700 C 337.993 52.934,335.477 50.800,334.580 50.800 C 334.041 50.800,333.600 50.616,333.600 50.390 C 333.600 50.165,333.150 49.809,332.600 49.600 C 332.050 49.391,331.600 48.945,331.600 48.610 C 331.600 48.267,331.250 48.000,330.800 48.000 C 330.360 48.000,330.000 47.742,330.000 47.427 C 330.000 47.112,329.640 46.740,329.200 46.600 C 328.760 46.460,328.400 45.998,328.400 45.573 C 328.400 45.148,328.130 44.800,327.800 44.800 C 327.467 44.800,327.200 44.444,327.200 44.000 C 327.200 43.467,326.933 43.200,326.400 43.200 C 325.867 43.200,325.600 42.933,325.600 42.400 C 325.600 41.733,325.333 41.600,324.000 41.600 C 322.844 41.600,322.400 41.433,322.400 41.000 C 322.400 40.667,322.044 40.400,321.600 40.400 C 321.013 40.400,320.800 40.133,320.800 39.400 C 320.800 38.778,320.573 38.400,320.200 38.400 C 319.867 38.400,319.600 38.044,319.600 37.600 C 319.600 36.937,319.333 36.800,318.043 36.800 C 317.065 36.800,316.404 36.588,316.267 36.231 C 316.147 35.918,315.635 35.603,315.129 35.531 C 314.607 35.457,314.145 35.071,314.063 34.639 C 313.793 33.223,312.487 32.231,311.024 32.329 C 309.874 32.407,309.638 32.277,309.529 31.511 C 309.428 30.796,309.144 30.600,308.207 30.600 C 307.390 30.600,306.971 30.380,306.878 29.900 C 306.803 29.515,306.485 29.200,306.171 29.200 C 305.857 29.200,305.600 28.840,305.600 28.400 C 305.600 27.719,305.333 27.600,303.800 27.600 C 302.267 27.600,302.000 27.481,302.000 26.800 C 302.000 26.152,301.733 26.000,300.600 26.000 C 299.467 26.000,299.200 25.848,299.200 25.200 C 299.200 24.683,298.933 24.400,298.447 24.400 C 298.030 24.400,297.600 24.043,297.484 23.600 C 297.324 22.987,296.938 22.800,295.837 22.800 C 294.667 22.800,294.400 22.652,294.400 22.000 C 294.400 21.355,294.133 21.200,293.027 21.200 C 292.005 21.200,291.589 20.995,291.400 20.400 C 291.212 19.809,290.795 19.600,289.800 19.600 C 288.805 19.600,288.388 19.391,288.200 18.800 C 288.012 18.208,287.595 18.000,286.593 18.000 C 285.720 18.000,285.101 17.752,284.848 17.300 C 284.556 16.778,283.944 16.600,282.443 16.600 C 280.734 16.600,280.412 16.479,280.315 15.800 C 280.217 15.119,279.946 15.019,278.500 15.127 C 276.908 15.246,276.800 15.188,276.800 14.227 C 276.800 13.326,276.633 13.200,275.443 13.200 C 274.605 13.200,273.997 12.970,273.855 12.600 C 273.686 12.158,272.988 12.000,271.213 12.000 C 269.067 12.000,268.800 11.912,268.800 11.200 C 268.800 10.489,268.533 10.400,266.400 10.400 C 264.267 10.400,264.000 10.311,264.000 9.600 C 264.000 8.887,263.733 8.800,261.553 8.800 C 259.269 8.800,259.121 8.744,259.325 7.965 C 259.528 7.190,259.394 7.136,257.472 7.215 C 254.295 7.344,254.000 7.275,254.000 6.400 C 254.000 5.671,253.733 5.600,251.000 5.600 C 248.233 5.600,248.000 5.536,248.000 4.772 C 248.000 4.018,247.780 3.950,245.500 4.004 C 240.963 4.111,240.800 4.081,240.800 3.143 C 240.800 2.321,240.670 2.295,237.668 2.500 C 233.945 2.756,232.270 2.516,232.556 1.769 C 232.874 0.941,231.599 0.750,226.552 0.873 C 223.104 0.957,221.819 0.857,221.698 0.494 C 221.456 -0.232,178.942 -0.226,178.700 0.500 M137.800 45.090 C 138.460 45.343,140.080 45.729,141.400 45.948 C 144.886 46.527,149.084 47.722,149.661 48.300 C 149.935 48.575,150.439 48.806,150.780 48.814 C 151.121 48.821,152.120 49.175,153.000 49.600 C 153.880 50.025,154.842 50.379,155.137 50.386 C 155.432 50.394,156.131 50.760,156.691 51.200 C 157.250 51.640,157.926 52.000,158.193 52.000 C 158.459 52.000,159.093 52.360,159.600 52.800 C 160.107 53.240,160.844 53.600,161.238 53.600 C 161.631 53.600,162.075 53.798,162.225 54.041 C 162.375 54.283,163.061 54.736,163.749 55.047 C 164.437 55.358,165.360 55.831,165.800 56.099 C 167.030 56.849,174.548 61.754,175.000 62.101 C 176.544 63.290,178.448 64.693,179.209 65.200 C 179.704 65.530,181.500 66.925,183.201 68.300 C 184.902 69.675,186.379 70.800,186.483 70.800 C 186.588 70.800,187.736 71.810,189.036 73.044 C 190.336 74.279,192.457 76.179,193.749 77.268 C 195.041 78.356,196.676 79.859,197.381 80.608 C 200.116 83.507,200.465 83.368,207.474 76.577 C 209.754 74.367,213.365 71.257,215.311 69.826 C 216.217 69.160,217.597 68.028,218.379 67.309 C 219.160 66.591,219.935 66.003,220.100 66.002 C 220.265 66.001,220.742 65.685,221.160 65.300 C 221.577 64.915,222.578 64.150,223.383 63.600 C 224.189 63.050,225.062 62.420,225.324 62.200 C 226.433 61.268,230.854 58.400,231.182 58.400 C 231.378 58.400,232.049 57.995,232.672 57.500 C 234.123 56.349,235.093 55.751,236.651 55.047 C 237.339 54.736,238.025 54.283,238.175 54.041 C 238.325 53.798,238.798 53.600,239.228 53.600 C 239.657 53.600,240.316 53.240,240.693 52.800 C 241.070 52.360,241.764 52.000,242.235 52.000 C 242.706 52.000,243.550 51.640,244.109 51.200 C 244.669 50.760,245.278 50.394,245.463 50.386 C 245.648 50.379,246.520 50.025,247.400 49.600 C 248.280 49.175,249.226 48.821,249.501 48.814 C 249.777 48.806,250.675 48.440,251.496 48.000 C 252.316 47.560,253.413 47.200,253.932 47.200 C 254.452 47.200,255.354 46.940,255.938 46.622 C 256.522 46.303,258.170 45.865,259.600 45.647 C 261.030 45.428,263.010 45.067,264.000 44.842 C 266.381 44.303,275.320 44.280,275.851 44.811 C 276.077 45.037,277.418 45.402,278.831 45.621 C 280.244 45.840,281.940 46.268,282.600 46.571 C 283.260 46.874,284.250 47.320,284.800 47.562 C 292.062 50.754,302.800 62.903,302.800 67.928 C 302.800 68.310,303.054 68.985,303.364 69.428 C 303.675 69.871,304.119 71.261,304.351 72.518 C 304.583 73.775,304.987 75.202,305.249 75.691 C 305.510 76.179,305.865 77.843,306.038 79.389 C 306.211 80.935,306.627 83.640,306.962 85.400 C 307.383 87.607,307.568 91.021,307.558 96.400 C 307.544 103.908,307.358 106.710,306.442 113.200 C 306.209 114.850,305.848 117.640,305.639 119.400 C 305.429 121.160,305.056 123.590,304.809 124.800 C 303.971 128.901,303.565 130.992,303.007 134.078 C 302.702 135.771,302.260 137.515,302.026 137.952 C 300.670 140.485,301.670 142.150,304.850 142.650 C 305.812 142.801,306.960 143.154,307.400 143.433 C 307.840 143.712,308.920 144.067,309.800 144.221 C 310.680 144.375,311.670 144.733,312.000 145.015 C 312.330 145.298,313.449 145.654,314.487 145.808 C 315.525 145.961,316.582 146.337,316.836 146.643 C 317.090 146.950,317.684 147.200,318.155 147.200 C 318.626 147.200,319.684 147.560,320.504 148.000 C 321.325 148.440,322.225 148.800,322.504 148.800 C 322.784 148.800,323.684 149.160,324.504 149.600 C 325.325 150.040,326.284 150.400,326.635 150.400 C 326.987 150.400,327.731 150.760,328.291 151.200 C 328.850 151.640,329.660 152.000,330.091 152.000 C 330.521 152.000,331.331 152.360,331.891 152.800 C 332.450 153.240,333.204 153.600,333.565 153.600 C 333.926 153.600,334.577 153.846,335.011 154.146 C 335.445 154.446,336.250 154.829,336.800 154.995 C 337.350 155.162,338.046 155.501,338.348 155.749 C 338.917 156.218,343.458 158.829,345.200 159.689 C 345.750 159.961,346.344 160.412,346.520 160.692 C 346.696 160.971,347.046 161.200,347.298 161.200 C 347.873 161.200,350.889 163.224,351.320 163.899 C 351.496 164.174,351.869 164.400,352.150 164.400 C 352.431 164.400,353.083 164.850,353.600 165.400 C 354.117 165.950,354.671 166.400,354.831 166.400 C 355.546 166.400,364.702 175.262,366.000 177.210 C 366.330 177.706,366.960 178.583,367.400 179.159 C 367.840 179.735,368.418 180.565,368.684 181.003 C 370.415 183.853,371.249 185.464,371.463 186.367 C 371.597 186.935,371.964 187.696,372.278 188.059 C 372.592 188.421,373.002 189.797,373.188 191.117 C 373.375 192.437,373.705 193.851,373.923 194.259 C 375.339 196.916,374.344 207.402,372.261 211.776 C 368.858 218.922,368.060 220.400,367.605 220.400 C 367.412 220.400,367.129 220.805,366.976 221.300 C 366.647 222.368,366.674 222.336,361.848 227.263 C 359.767 229.388,357.020 231.908,355.745 232.863 C 354.470 233.818,353.118 234.870,352.742 235.200 C 351.451 236.331,350.923 236.716,349.762 237.370 C 349.123 237.730,348.060 238.373,347.400 238.800 C 346.740 239.227,345.660 239.876,345.000 240.244 C 344.340 240.611,343.710 241.022,343.600 241.156 C 343.316 241.503,333.567 246.562,332.400 246.968 C 332.070 247.083,331.530 247.334,331.200 247.526 C 329.953 248.250,326.986 249.602,326.644 249.601 C 326.448 249.600,325.548 249.935,324.644 250.344 C 323.740 250.754,322.460 251.277,321.800 251.507 C 318.444 252.675,317.672 252.969,316.156 253.656 C 315.252 254.065,314.172 254.406,313.756 254.414 C 313.340 254.421,312.280 254.775,311.400 255.200 C 310.520 255.625,309.415 255.979,308.944 255.986 C 308.473 255.994,307.303 256.356,306.344 256.791 C 305.385 257.226,304.240 257.592,303.800 257.604 C 301.684 257.661,300.745 260.443,302.160 262.464 C 302.512 262.967,302.800 263.867,302.800 264.464 C 302.800 265.061,303.159 267.046,303.597 268.875 C 304.036 270.704,304.396 272.779,304.397 273.486 C 304.399 274.193,304.689 275.624,305.043 276.666 C 305.397 277.708,305.836 280.459,306.019 282.780 C 306.203 285.101,306.572 287.900,306.840 289.000 C 307.525 291.813,307.582 313.282,306.909 315.200 C 306.639 315.970,306.246 318.130,306.035 320.000 C 305.824 321.870,305.370 324.069,305.026 324.887 C 304.682 325.705,304.394 326.875,304.386 327.487 C 304.379 328.099,304.025 329.320,303.600 330.200 C 303.175 331.080,302.821 332.001,302.814 332.247 C 302.746 334.463,295.699 344.908,292.725 347.200 C 292.011 347.750,291.125 348.496,290.756 348.858 C 289.818 349.777,284.575 352.800,283.919 352.800 C 283.622 352.800,283.004 353.062,282.547 353.382 C 282.090 353.702,280.655 354.151,279.358 354.381 C 278.061 354.610,276.036 354.990,274.858 355.225 C 269.884 356.216,260.055 354.956,252.700 352.385 C 252.095 352.173,251.015 351.800,250.300 351.556 C 249.585 351.312,248.334 350.772,247.521 350.356 C 246.707 349.940,245.746 349.600,245.384 349.600 C 245.022 349.600,244.269 349.240,243.709 348.800 C 243.150 348.360,242.468 348.000,242.195 348.000 C 241.922 348.000,241.489 347.748,241.233 347.439 C 240.977 347.131,240.294 346.760,239.715 346.614 C 239.137 346.469,238.220 346.002,237.678 345.575 C 237.136 345.149,236.356 344.800,235.946 344.800 C 235.536 344.800,235.200 344.637,235.200 344.438 C 235.200 344.142,232.684 342.442,231.000 341.600 C 230.253 341.227,228.202 339.813,227.671 339.305 C 227.381 339.027,227.003 338.800,226.833 338.800 C 226.662 338.800,226.135 338.485,225.662 338.100 C 225.189 337.715,223.714 336.590,222.385 335.600 C 221.056 334.610,219.062 333.080,217.955 332.200 C 216.848 331.320,215.390 330.196,214.717 329.703 C 212.741 328.257,209.384 325.275,205.049 321.113 C 199.967 316.234,200.609 316.203,194.931 321.600 C 193.195 323.250,190.919 325.320,189.874 326.200 C 188.828 327.080,187.214 328.472,186.287 329.294 C 185.359 330.116,184.503 330.791,184.384 330.794 C 184.265 330.797,183.372 331.520,182.400 332.400 C 181.428 333.280,180.394 334.000,180.103 334.000 C 179.813 334.000,179.480 334.246,179.365 334.547 C 179.249 334.848,178.220 335.693,177.077 336.424 C 175.935 337.156,174.856 337.989,174.680 338.277 C 174.504 338.565,174.108 338.800,173.800 338.800 C 173.492 338.800,173.096 339.029,172.920 339.308 C 172.744 339.588,172.150 340.041,171.600 340.315 C 171.050 340.589,169.790 341.346,168.800 341.998 C 167.810 342.650,166.595 343.363,166.100 343.582 C 165.605 343.801,165.200 344.150,165.200 344.358 C 165.200 344.566,164.672 344.852,164.028 344.994 C 163.383 345.136,162.641 345.510,162.379 345.826 C 162.117 346.142,161.678 346.400,161.405 346.400 C 161.132 346.400,160.450 346.760,159.891 347.200 C 159.331 347.640,158.611 348.000,158.291 348.000 C 157.970 348.000,157.250 348.360,156.691 348.800 C 156.131 349.240,155.430 349.600,155.131 349.600 C 154.832 349.600,153.916 349.960,153.096 350.400 C 152.275 350.840,151.287 351.201,150.901 351.203 C 150.516 351.204,149.660 351.563,149.000 352.000 C 148.340 352.437,147.377 352.796,146.860 352.797 C 146.344 352.799,145.354 353.057,144.660 353.371 C 140.981 355.038,128.652 356.090,124.810 355.066 C 123.595 354.741,121.837 354.367,120.906 354.234 C 118.774 353.930,115.584 352.640,113.400 351.200 C 112.740 350.765,111.750 350.185,111.200 349.912 C 110.650 349.640,110.110 349.309,110.000 349.179 C 109.890 349.048,108.725 347.975,107.411 346.793 C 105.120 344.735,102.000 341.130,102.000 340.543 C 102.000 340.389,101.735 339.970,101.412 339.613 C 100.554 338.665,98.800 335.260,98.800 334.542 C 98.800 334.203,98.440 333.469,98.000 332.909 C 97.560 332.350,97.199 331.511,97.198 331.046 C 97.196 330.581,96.937 329.706,96.622 329.102 C 96.307 328.498,95.925 327.148,95.773 326.102 C 95.621 325.056,95.260 323.733,94.970 323.163 C 94.681 322.593,94.334 320.703,94.199 318.963 C 94.064 317.223,93.671 314.122,93.324 312.071 C 92.622 307.910,92.749 296.126,93.551 291.000 C 93.792 289.460,94.165 286.490,94.380 284.400 C 94.972 278.648,96.015 271.885,96.431 271.104 C 96.635 270.721,96.976 269.182,97.188 267.683 C 97.401 266.185,97.850 264.299,98.187 263.492 C 99.707 259.856,98.973 257.989,95.800 257.417 C 94.920 257.258,93.985 256.951,93.722 256.733 C 93.458 256.516,92.288 256.099,91.122 255.806 C 89.955 255.514,87.740 254.795,86.200 254.208 C 84.660 253.622,82.720 252.998,81.889 252.823 C 81.057 252.647,80.053 252.210,79.657 251.852 C 79.261 251.493,78.478 251.200,77.917 251.200 C 77.357 251.200,76.674 250.930,76.400 250.600 C 76.126 250.270,75.626 250.000,75.290 250.000 C 74.646 250.000,71.231 248.541,68.721 247.194 C 67.907 246.757,66.984 246.400,66.670 246.400 C 66.355 246.400,65.883 246.142,65.621 245.826 C 65.359 245.510,64.630 245.138,64.000 245.000 C 63.370 244.862,62.650 244.502,62.400 244.200 C 62.150 243.898,61.432 243.539,60.806 243.401 C 60.179 243.264,59.574 242.909,59.460 242.613 C 59.347 242.317,58.702 241.954,58.027 241.806 C 57.352 241.658,56.800 241.404,56.800 241.242 C 56.800 241.081,56.215 240.637,55.500 240.258 C 52.758 238.801,50.801 237.494,47.600 234.981 C 46.170 233.859,44.672 232.759,44.271 232.538 C 42.871 231.766,35.999 224.725,34.348 222.373 C 33.433 221.068,32.530 220.000,32.342 220.000 C 32.154 220.000,32.000 219.744,32.000 219.431 C 32.000 219.118,31.550 218.327,31.000 217.673 C 30.450 217.019,30.000 216.230,30.000 215.919 C 30.000 215.608,29.736 215.004,29.413 214.576 C 29.090 214.149,28.820 213.542,28.813 213.226 C 28.806 212.911,28.452 211.921,28.027 211.026 C 25.750 206.238,25.595 192.219,27.790 189.600 C 28.066 189.270,28.417 188.460,28.570 187.800 C 28.875 186.480,30.386 183.117,30.817 182.800 C 30.966 182.690,31.428 181.991,31.844 181.248 C 33.170 178.876,33.359 178.613,35.600 176.024 C 38.605 172.551,40.194 170.989,43.433 168.322 C 44.955 167.068,46.579 165.673,47.042 165.222 C 47.505 164.770,48.096 164.400,48.355 164.400 C 48.613 164.400,48.926 164.137,49.050 163.815 C 49.173 163.494,49.622 163.120,50.047 162.985 C 51.150 162.635,54.000 160.720,54.000 160.329 C 54.000 160.148,54.246 160.000,54.546 160.000 C 54.846 160.000,55.550 159.640,56.109 159.200 C 56.669 158.760,57.385 158.400,57.701 158.400 C 58.017 158.400,58.602 158.040,59.000 157.600 C 59.398 157.160,60.032 156.800,60.408 156.800 C 60.784 156.800,61.536 156.451,62.078 156.025 C 62.620 155.598,63.537 155.131,64.115 154.986 C 64.694 154.840,65.377 154.469,65.633 154.161 C 65.889 153.852,66.355 153.600,66.670 153.600 C 66.984 153.600,67.907 153.262,68.721 152.849 C 69.534 152.435,71.010 151.735,72.000 151.292 C 72.990 150.849,74.630 150.107,75.644 149.643 C 76.658 149.180,77.694 148.800,77.945 148.800 C 78.197 148.800,79.075 148.440,79.896 148.000 C 80.716 147.560,81.756 147.200,82.205 147.200 C 82.654 147.200,83.377 146.956,83.811 146.657 C 84.245 146.358,85.320 145.985,86.200 145.827 C 87.080 145.670,88.160 145.311,88.600 145.031 C 89.040 144.751,90.346 144.296,91.501 144.020 C 92.657 143.745,93.690 143.378,93.796 143.206 C 93.903 143.033,94.800 142.771,95.790 142.622 C 98.745 142.179,99.762 139.653,98.195 136.650 C 97.865 136.017,97.483 134.487,97.345 133.250 C 97.207 132.012,96.865 130.434,96.585 129.742 C 96.305 129.051,95.956 127.071,95.808 125.342 C 95.661 123.614,95.291 121.390,94.986 120.400 C 94.681 119.410,94.238 115.990,94.002 112.800 C 93.766 109.610,93.398 106.022,93.186 104.827 C 92.615 101.613,92.718 91.797,93.362 87.952 C 93.671 86.109,94.044 83.111,94.190 81.291 C 94.337 79.471,94.705 77.504,95.009 76.918 C 95.312 76.333,95.684 74.852,95.834 73.627 C 95.985 72.402,96.354 71.045,96.654 70.611 C 96.954 70.177,97.200 69.544,97.200 69.205 C 97.200 68.866,97.560 67.916,98.000 67.096 C 98.440 66.275,98.800 65.406,98.800 65.165 C 98.800 64.923,99.160 64.269,99.600 63.709 C 100.040 63.150,100.400 62.384,100.400 62.008 C 100.400 61.632,100.760 60.998,101.200 60.600 C 101.640 60.202,102.000 59.643,102.000 59.359 C 102.000 58.757,109.959 50.400,110.532 50.400 C 110.744 50.400,111.849 49.781,112.988 49.025 C 114.127 48.269,115.586 47.528,116.230 47.378 C 116.873 47.228,117.763 46.880,118.207 46.604 C 118.650 46.329,120.315 45.884,121.905 45.616 C 123.496 45.348,124.904 44.955,125.035 44.744 C 125.362 44.215,136.289 44.511,137.800 45.090 M124.357 58.779 C 121.858 59.443,118.048 61.601,116.220 63.389 C 114.522 65.049,112.437 67.913,112.179 68.939 C 112.033 69.523,111.760 70.000,111.573 70.000 C 111.385 70.000,111.010 70.765,110.739 71.700 C 110.467 72.635,110.024 73.760,109.752 74.200 C 109.481 74.640,109.132 75.720,108.977 76.600 C 108.822 77.480,108.547 78.389,108.365 78.620 C 106.194 81.379,106.004 103.056,108.034 116.400 C 108.252 117.830,108.674 120.759,108.974 122.910 C 109.273 125.060,109.703 127.042,109.928 127.313 C 110.154 127.585,110.466 128.976,110.623 130.404 C 110.779 131.832,111.153 133.486,111.453 134.080 C 111.754 134.674,112.000 135.516,112.000 135.952 C 112.000 138.012,114.571 138.463,118.115 137.025 C 118.822 136.739,120.652 136.382,122.183 136.232 C 123.713 136.083,125.177 135.785,125.437 135.570 C 125.696 135.355,127.127 135.065,128.617 134.926 L 131.325 134.673 131.080 136.186 C 130.945 137.018,130.572 137.992,130.251 138.350 C 129.930 138.707,129.535 139.720,129.373 140.600 C 129.212 141.480,128.850 142.560,128.571 143.000 C 128.291 143.440,127.936 144.670,127.781 145.734 C 127.376 148.513,126.357 149.435,123.300 149.789 C 117.109 150.506,115.713 152.058,117.577 156.151 C 118.030 157.144,118.400 158.261,118.400 158.634 C 118.400 159.007,118.735 160.052,119.144 160.956 C 120.083 163.027,120.741 164.866,121.438 167.359 C 121.739 168.437,122.259 169.735,122.593 170.245 C 122.927 170.755,123.200 171.606,123.200 172.137 C 123.200 172.668,123.465 173.322,123.789 173.591 C 124.114 173.860,124.496 174.737,124.640 175.540 C 124.784 176.343,125.132 177.270,125.413 177.600 C 125.695 177.930,126.126 178.951,126.370 179.869 C 126.614 180.787,126.952 181.597,127.120 181.669 C 127.601 181.875,129.200 184.779,129.200 185.448 C 129.200 186.456,132.388 193.180,133.459 194.431 C 133.757 194.779,134.000 195.246,134.000 195.470 C 134.000 195.693,134.360 196.202,134.800 196.600 C 135.362 197.108,135.600 197.832,135.600 199.030 C 135.600 200.216,136.078 201.689,137.171 203.868 C 138.035 205.590,138.853 207.270,138.990 207.600 C 139.126 207.930,139.675 208.920,140.210 209.800 C 140.744 210.680,141.365 211.850,141.590 212.400 C 141.815 212.950,142.177 213.670,142.394 214.000 C 142.611 214.330,143.068 215.224,143.410 215.986 C 143.751 216.748,144.159 217.468,144.316 217.586 C 144.472 217.704,145.122 218.880,145.760 220.200 C 146.397 221.520,147.184 222.908,147.507 223.284 C 148.257 224.157,147.863 225.863,146.836 226.189 C 145.914 226.481,141.600 230.760,141.600 231.381 C 141.600 231.624,141.262 232.112,140.848 232.466 C 140.435 232.820,140.030 233.286,139.948 233.502 C 139.602 234.417,138.138 234.419,137.659 233.506 C 137.398 233.008,136.750 231.880,136.220 231.000 C 135.689 230.120,134.991 228.837,134.668 228.149 C 134.346 227.461,133.883 226.775,133.641 226.625 C 133.398 226.475,133.200 226.012,133.200 225.596 C 133.200 225.180,132.955 224.696,132.657 224.520 C 132.358 224.344,131.894 223.525,131.626 222.700 C 131.357 221.875,130.986 221.200,130.801 221.200 C 130.615 221.200,130.348 220.672,130.206 220.028 C 129.633 217.420,127.189 217.338,126.401 219.900 C 125.894 221.548,125.105 223.409,123.952 225.679 C 123.538 226.493,123.200 227.578,123.200 228.090 C 123.200 228.603,122.943 229.389,122.628 229.839 C 122.313 230.288,121.572 232.173,120.980 234.028 C 120.388 235.882,119.565 238.140,119.152 239.044 C 118.738 239.948,118.400 240.993,118.400 241.366 C 118.400 241.739,118.030 242.856,117.577 243.849 C 115.749 247.863,116.965 249.311,122.900 250.193 C 124.966 250.500,125.294 251.089,124.064 252.284 C 122.769 253.544,120.000 257.256,119.998 257.736 C 119.996 257.991,119.743 258.683,119.435 259.273 C 119.127 259.863,118.760 260.874,118.618 261.518 L 118.361 262.690 115.539 262.488 C 112.505 262.271,112.018 262.523,112.006 264.314 C 112.003 264.817,111.747 265.627,111.438 266.114 C 111.129 266.601,110.748 268.170,110.592 269.600 C 110.436 271.030,110.114 272.560,109.876 273.000 C 109.638 273.440,109.223 275.330,108.954 277.200 C 108.685 279.070,108.279 281.860,108.050 283.400 C 105.971 297.406,106.134 317.020,108.363 321.080 C 108.581 321.476,108.867 322.640,108.999 323.667 C 109.131 324.694,109.500 325.751,109.820 326.016 C 110.139 326.281,110.400 326.827,110.400 327.230 C 110.400 328.146,111.225 330.000,111.632 330.000 C 111.800 330.000,112.046 330.495,112.180 331.100 C 112.314 331.705,113.139 332.996,114.012 333.968 C 114.885 334.940,115.600 335.885,115.600 336.068 C 115.600 336.251,115.757 336.400,115.950 336.400 C 116.142 336.400,116.986 337.029,117.824 337.797 C 118.663 338.565,119.721 339.306,120.175 339.444 C 120.629 339.582,121.292 339.951,121.649 340.263 C 122.006 340.576,123.266 341.013,124.449 341.234 C 130.625 342.389,131.359 342.434,134.200 341.841 C 135.740 341.519,137.900 341.140,139.000 340.997 C 140.100 340.854,141.364 340.504,141.809 340.219 C 142.254 339.934,143.368 339.574,144.286 339.419 C 145.203 339.264,146.166 338.882,146.426 338.569 C 146.686 338.256,147.165 338.000,147.491 338.000 C 148.243 338.000,156.287 334.106,156.608 333.587 C 156.740 333.374,157.126 333.200,157.466 333.200 C 157.806 333.200,158.589 332.795,159.206 332.300 C 159.823 331.805,161.469 330.695,162.864 329.832 C 165.385 328.274,165.779 327.984,167.500 326.419 C 167.995 325.968,168.561 325.600,168.757 325.600 C 169.237 325.600,178.562 318.135,180.685 316.053 C 181.611 315.144,182.455 314.400,182.559 314.400 C 182.664 314.400,183.822 313.365,185.133 312.100 C 186.444 310.835,188.091 309.290,188.793 308.666 C 190.230 307.390,190.225 305.864,188.782 304.851 C 187.248 303.774,188.140 303.663,199.381 303.533 C 207.803 303.434,210.891 303.270,211.261 302.900 C 211.535 302.625,212.219 302.405,212.780 302.412 C 213.666 302.423,213.708 302.478,213.100 302.832 C 212.715 303.056,212.400 303.506,212.400 303.832 C 212.400 304.158,212.143 304.524,211.828 304.645 C 208.995 305.732,211.806 309.599,220.802 316.992 C 222.671 318.528,224.344 320.013,224.520 320.292 C 224.696 320.571,225.011 320.800,225.220 320.800 C 225.429 320.800,225.935 321.115,226.344 321.500 C 227.654 322.733,230.031 324.582,231.101 325.200 C 231.671 325.530,232.422 326.038,232.769 326.329 C 234.984 328.187,235.859 328.799,236.300 328.800 C 236.575 328.800,236.800 328.951,236.800 329.136 C 236.800 329.320,237.257 329.680,237.815 329.934 C 238.373 330.188,239.048 330.580,239.315 330.804 C 240.507 331.805,242.907 333.212,243.810 333.438 C 244.355 333.575,244.800 333.835,244.800 334.016 C 244.800 334.198,245.205 334.473,245.700 334.628 C 246.195 334.783,247.029 335.245,247.554 335.655 C 248.079 336.065,248.822 336.400,249.205 336.400 C 249.588 336.400,250.110 336.651,250.365 336.958 C 250.620 337.265,251.434 337.630,252.174 337.769 C 252.914 337.908,253.728 338.272,253.983 338.579 C 254.238 338.886,255.201 339.259,256.123 339.407 C 257.045 339.556,258.169 339.910,258.619 340.195 C 259.433 340.709,262.318 341.279,267.931 342.035 C 270.262 342.349,271.355 342.304,273.264 341.815 C 274.584 341.477,276.076 341.200,276.578 341.200 C 277.081 341.200,277.950 340.840,278.509 340.400 C 279.069 339.960,279.773 339.600,280.074 339.600 C 281.335 339.600,287.098 333.966,288.044 331.808 C 288.239 331.363,288.568 330.730,288.775 330.400 C 289.702 328.922,291.200 325.163,291.200 324.314 C 291.200 323.799,291.453 323.017,291.762 322.576 C 292.071 322.135,292.508 320.250,292.733 318.387 C 292.959 316.524,293.328 314.190,293.554 313.200 C 294.091 310.851,294.087 293.927,293.549 291.600 C 293.321 290.610,292.899 287.550,292.611 284.800 C 292.323 282.050,291.903 279.260,291.676 278.600 C 291.450 277.940,291.153 276.161,291.016 274.648 C 290.879 273.134,290.530 271.328,290.241 270.635 C 289.951 269.942,289.582 268.316,289.420 267.021 C 288.880 262.699,286.422 261.285,282.349 262.952 C 281.607 263.256,279.768 263.632,278.263 263.788 C 276.758 263.944,274.919 264.325,274.176 264.636 C 270.565 266.144,268.163 265.026,270.000 262.691 C 270.440 262.131,270.800 261.157,270.800 260.526 C 270.800 259.895,271.055 259.014,271.367 258.569 C 271.679 258.123,272.050 257.048,272.191 256.180 C 272.333 255.311,272.831 253.740,273.298 252.689 C 274.178 250.708,274.260 250.660,277.577 250.208 C 280.127 249.861,283.235 248.775,283.475 248.148 C 283.906 247.027,282.486 241.634,280.740 237.756 C 280.333 236.852,280.000 235.659,280.000 235.105 C 280.000 234.551,279.739 233.881,279.420 233.616 C 279.100 233.351,278.721 232.345,278.576 231.380 C 278.431 230.415,278.067 229.422,277.767 229.173 C 277.467 228.924,277.104 228.063,276.960 227.260 C 276.816 226.457,276.465 225.530,276.180 225.200 C 275.896 224.870,275.531 224.060,275.370 223.400 C 275.209 222.740,274.745 221.573,274.339 220.806 C 273.932 220.039,273.600 219.116,273.600 218.755 C 273.600 218.394,273.330 217.874,273.000 217.600 C 272.670 217.326,272.400 216.622,272.400 216.036 C 272.400 215.449,272.040 214.263,271.600 213.400 C 271.160 212.537,270.800 211.356,270.800 210.777 C 270.800 210.197,270.440 209.307,270.000 208.800 C 269.560 208.293,269.200 207.628,269.200 207.323 C 269.200 207.017,268.840 206.235,268.400 205.584 C 266.575 202.884,266.133 202.166,265.886 201.500 C 265.742 201.115,265.439 200.800,265.213 200.800 C 264.986 200.800,264.800 200.497,264.800 200.127 C 264.800 199.529,261.743 192.741,260.779 191.200 C 260.573 190.870,260.113 189.925,259.759 189.100 C 259.404 188.275,258.953 187.600,258.757 187.600 C 258.560 187.600,258.400 187.342,258.400 187.026 C 258.400 186.306,257.835 185.053,256.584 183.000 C 256.048 182.120,255.410 180.905,255.166 180.300 C 254.921 179.695,254.574 179.200,254.393 179.200 C 254.212 179.200,253.948 178.672,253.806 178.028 C 253.664 177.383,253.280 176.632,252.951 176.359 C 252.623 176.087,252.096 175.309,251.781 174.632 C 251.466 173.954,250.692 172.498,250.061 171.396 C 248.106 167.979,248.092 168.079,251.091 164.292 C 252.581 162.410,254.070 160.480,254.400 160.002 C 254.730 159.525,255.477 158.629,256.059 158.013 L 257.118 156.893 257.959 158.030 C 258.422 158.656,258.800 159.331,258.800 159.530 C 258.800 159.729,259.138 160.322,259.551 160.847 C 259.964 161.372,260.909 162.923,261.651 164.292 C 262.393 165.662,263.404 167.461,263.897 168.291 C 264.391 169.121,265.063 170.373,265.391 171.073 C 265.719 171.773,266.171 172.458,266.394 172.596 C 266.617 172.734,266.800 173.169,266.800 173.562 C 266.800 173.955,267.160 174.602,267.600 175.000 C 268.040 175.398,268.400 176.032,268.400 176.408 C 268.400 176.784,268.760 177.550,269.200 178.109 C 269.640 178.669,270.000 179.299,270.000 179.509 C 270.000 180.281,271.680 182.000,272.434 182.000 C 273.243 182.000,274.991 178.690,275.496 176.202 C 275.630 175.543,275.962 174.781,276.233 174.510 C 276.505 174.238,276.849 173.292,276.999 172.408 C 277.148 171.524,277.428 170.800,277.620 170.800 C 277.812 170.800,278.159 170.095,278.391 169.233 C 278.623 168.372,279.079 167.157,279.404 166.533 C 279.729 165.910,279.996 165.037,279.998 164.594 C 279.999 164.151,280.360 163.116,280.800 162.296 C 281.240 161.475,281.600 160.395,281.600 159.896 C 281.600 159.396,281.943 158.348,282.362 157.566 C 282.781 156.784,283.252 155.124,283.408 153.877 L 283.691 151.611 281.944 150.862 C 280.983 150.450,278.514 149.914,276.457 149.671 C 274.399 149.427,272.496 149.045,272.226 148.822 C 271.957 148.598,270.176 148.295,268.268 148.149 C 266.361 148.002,264.800 147.795,264.800 147.688 C 264.800 147.299,266.569 144.557,267.867 142.933 C 268.600 142.016,269.200 140.879,269.200 140.406 C 269.200 139.934,269.413 139.154,269.674 138.674 C 269.935 138.193,270.252 137.170,270.379 136.400 C 270.674 134.620,271.466 134.479,275.015 135.576 C 276.483 136.029,278.177 136.400,278.778 136.400 C 279.380 136.400,281.296 136.766,283.036 137.214 C 287.637 138.397,288.729 137.629,289.431 132.713 C 289.566 131.771,289.926 130.280,290.232 129.400 C 290.538 128.520,290.968 126.304,291.186 124.475 C 291.405 122.646,291.712 120.943,291.868 120.690 C 292.025 120.437,292.371 117.973,292.639 115.215 C 292.906 112.457,293.318 109.480,293.553 108.600 C 294.217 106.117,294.136 87.501,293.455 85.869 C 293.155 85.151,292.776 83.132,292.612 81.382 C 292.449 79.632,292.064 77.714,291.757 77.120 C 291.451 76.526,291.200 75.750,291.200 75.395 C 291.200 74.773,289.548 70.829,288.773 69.600 C 288.565 69.270,288.170 68.552,287.897 68.005 C 287.624 67.459,287.130 66.716,286.800 66.356 C 282.451 61.607,279.461 59.472,276.123 58.737 C 271.526 57.725,261.696 58.316,258.600 59.790 C 257.940 60.105,256.635 60.558,255.700 60.796 C 254.765 61.035,254.000 61.384,254.000 61.571 C 254.000 61.758,253.325 62.036,252.500 62.189 C 251.675 62.342,250.730 62.698,250.400 62.980 C 250.070 63.262,249.318 63.607,248.728 63.747 C 248.138 63.887,247.418 64.226,247.128 64.502 C 246.838 64.777,245.520 65.537,244.200 66.191 C 242.880 66.845,241.620 67.520,241.400 67.691 C 239.979 68.795,236.841 70.880,236.000 71.279 C 235.450 71.539,234.640 72.059,234.200 72.434 C 233.760 72.809,232.680 73.598,231.800 74.187 C 230.180 75.272,227.718 77.220,226.349 78.500 C 225.937 78.885,225.414 79.200,225.187 79.200 C 224.961 79.200,224.669 79.477,224.539 79.815 C 224.409 80.153,223.830 80.682,223.252 80.990 C 222.673 81.298,220.863 82.822,219.228 84.375 C 217.594 85.929,216.183 87.200,216.093 87.200 C 215.733 87.200,210.400 92.788,210.400 93.165 C 210.400 93.387,211.206 94.558,212.190 95.767 C 214.320 98.381,214.292 98.412,210.200 97.980 C 206.332 97.573,196.023 97.566,190.800 97.967 C 186.179 98.323,185.876 98.124,187.921 96.079 C 190.860 93.140,189.841 91.414,180.795 84.002 C 179.588 83.012,178.420 82.009,178.200 81.771 C 177.464 80.978,173.317 77.600,173.077 77.600 C 172.948 77.600,172.337 77.131,171.721 76.558 C 171.104 75.985,169.700 74.896,168.600 74.139 C 167.500 73.382,165.790 72.153,164.800 71.408 C 163.810 70.663,162.803 70.041,162.562 70.027 C 162.321 70.012,161.798 69.640,161.400 69.200 C 161.002 68.760,160.507 68.400,160.301 68.400 C 160.095 68.400,159.469 68.040,158.909 67.600 C 158.350 67.160,157.556 66.800,157.146 66.800 C 156.736 66.800,156.400 66.640,156.400 66.443 C 156.400 66.247,155.680 65.799,154.800 65.447 C 153.920 65.095,153.200 64.625,153.200 64.403 C 153.200 64.181,152.968 64.000,152.685 64.000 C 152.401 64.000,151.484 63.650,150.646 63.223 C 149.808 62.796,148.612 62.334,147.989 62.197 C 147.365 62.061,146.652 61.704,146.405 61.406 C 146.157 61.107,145.203 60.736,144.286 60.581 C 143.368 60.426,142.253 60.060,141.807 59.768 C 139.594 58.318,128.468 57.687,124.357 58.779 M212.178 113.556 C 212.826 113.822,214.632 114.201,216.192 114.399 C 217.752 114.597,219.562 115.037,220.214 115.377 C 220.866 115.717,221.760 115.996,222.200 115.997 C 223.132 116.000,227.447 117.376,229.900 118.454 C 232.959 119.797,235.389 120.912,236.000 121.253 C 236.330 121.437,237.187 121.852,237.904 122.175 C 238.621 122.498,240.170 123.401,241.345 124.181 C 242.521 124.962,243.604 125.600,243.752 125.600 C 244.023 125.600,248.885 129.316,251.743 131.709 C 252.592 132.419,253.537 133.144,253.843 133.320 C 255.129 134.058,254.048 136.353,250.497 140.424 C 250.221 140.741,248.720 142.620,247.163 144.600 C 245.606 146.580,244.167 148.260,243.966 148.333 C 243.765 148.407,243.600 148.627,243.600 148.822 C 243.600 149.313,239.513 154.400,239.119 154.400 C 238.944 154.400,238.794 154.625,238.787 154.900 C 238.723 157.462,236.100 158.013,233.552 156.000 C 232.439 155.120,231.302 154.400,231.026 154.400 C 230.750 154.400,230.198 154.040,229.800 153.600 C 229.402 153.160,228.847 152.800,228.567 152.800 C 228.286 152.800,227.819 152.566,227.529 152.279 C 227.238 151.993,226.190 151.383,225.200 150.924 C 219.981 148.504,218.813 148.000,218.423 148.000 C 218.189 148.000,217.325 147.640,216.504 147.200 C 215.684 146.760,214.559 146.398,214.006 146.396 C 213.453 146.393,212.100 146.100,211.000 145.744 C 208.176 144.831,194.063 144.774,192.000 145.668 C 191.230 146.001,189.943 146.397,189.140 146.548 C 188.337 146.698,187.460 147.086,187.191 147.411 C 186.922 147.735,186.469 148.000,186.185 148.000 C 185.599 148.000,184.144 149.147,182.126 151.200 C 179.850 153.515,179.675 153.759,179.394 155.003 C 179.246 155.661,178.857 156.798,178.530 157.530 C 176.666 161.692,181.364 172.295,185.113 172.387 C 185.394 172.394,185.724 172.657,185.845 172.972 C 185.965 173.287,186.545 173.734,187.132 173.966 C 187.719 174.198,188.470 174.564,188.800 174.779 C 189.130 174.994,190.480 175.639,191.800 176.212 C 193.120 176.785,194.678 177.512,195.262 177.827 C 195.846 178.142,196.568 178.400,196.868 178.400 C 197.167 178.400,198.084 178.760,198.904 179.200 C 199.725 179.640,200.603 180.000,200.855 180.000 C 201.333 180.000,203.954 181.136,206.479 182.437 C 207.293 182.857,208.344 183.200,208.816 183.200 C 209.288 183.200,210.131 183.560,210.691 184.000 C 211.250 184.440,212.061 184.800,212.492 184.800 C 212.924 184.800,213.754 185.056,214.338 185.369 C 216.302 186.422,218.991 187.551,220.200 187.831 C 220.860 187.984,221.850 188.342,222.400 188.627 C 224.423 189.676,227.963 191.200,228.377 191.200 C 228.611 191.200,229.475 191.560,230.296 192.000 C 231.116 192.440,231.994 192.800,232.245 192.800 C 232.496 192.800,232.911 193.052,233.167 193.361 C 233.423 193.669,234.091 194.036,234.651 194.177 C 235.210 194.317,235.878 194.610,236.134 194.827 C 236.390 195.044,237.500 195.795,238.600 196.496 C 239.700 197.197,240.690 197.885,240.800 198.025 C 240.910 198.166,241.439 198.512,241.975 198.794 C 243.760 199.736,251.200 206.820,251.200 207.579 C 251.200 207.824,251.463 208.126,251.785 208.250 C 252.106 208.373,252.488 208.862,252.632 209.337 C 252.776 209.812,253.138 210.478,253.436 210.819 C 254.222 211.718,256.000 215.152,256.000 215.772 C 256.000 216.064,256.265 216.522,256.589 216.791 C 256.914 217.060,257.283 217.937,257.411 218.740 C 257.539 219.543,257.850 220.560,258.103 221.000 C 260.816 225.729,260.668 242.510,257.834 251.400 C 256.822 254.576,254.660 259.000,252.537 262.241 C 251.802 263.364,251.200 264.385,251.200 264.509 C 251.200 265.378,242.710 273.835,239.902 275.763 C 236.133 278.351,235.802 278.596,235.667 278.900 C 235.593 279.065,235.213 279.200,234.821 279.200 C 234.429 279.200,233.664 279.549,233.122 279.975 C 232.580 280.402,231.663 280.869,231.085 281.014 C 230.506 281.160,229.823 281.531,229.567 281.839 C 229.311 282.148,228.829 282.400,228.495 282.400 C 228.161 282.400,227.148 282.733,226.244 283.140 C 223.821 284.231,220.864 285.210,218.609 285.666 C 217.514 285.888,216.266 286.258,215.835 286.488 C 213.414 287.784,192.828 288.905,187.600 288.026 C 186.170 287.786,183.320 287.421,181.266 287.215 C 179.212 287.010,177.296 286.646,177.008 286.407 C 176.720 286.168,175.521 285.863,174.342 285.730 C 173.164 285.597,171.750 285.265,171.200 284.992 C 170.650 284.719,169.570 284.371,168.800 284.218 C 167.247 283.910,163.878 282.702,161.356 281.551 C 160.452 281.138,159.439 280.800,159.105 280.800 C 158.771 280.800,158.283 280.542,158.021 280.226 C 157.759 279.910,156.972 279.530,156.272 279.381 C 155.573 279.233,154.730 278.882,154.400 278.603 C 154.070 278.323,153.364 277.961,152.831 277.798 C 152.298 277.635,151.668 277.342,151.431 277.145 C 150.264 276.179,147.874 274.784,147.019 274.569 C 146.490 274.436,145.961 274.074,145.841 273.764 C 145.722 273.454,145.434 273.200,145.201 273.200 C 144.967 273.200,143.866 272.480,142.752 271.600 C 141.639 270.720,140.579 270.000,140.397 270.000 C 140.214 270.000,139.332 269.325,138.436 268.500 C 137.540 267.675,136.266 266.581,135.604 266.070 C 133.978 264.813,134.087 263.827,136.100 261.613 C 137.035 260.584,138.155 259.305,138.588 258.771 C 142.148 254.383,143.122 253.225,144.275 252.000 C 145.000 251.230,145.595 250.491,145.597 250.358 C 145.598 250.226,146.005 249.666,146.500 249.116 C 146.995 248.566,148.390 246.964,149.600 245.558 C 150.810 244.151,152.619 242.126,153.619 241.058 L 155.439 239.116 156.677 240.158 C 157.358 240.731,158.025 241.200,158.158 241.200 C 158.291 241.200,158.747 241.515,159.171 241.900 C 160.758 243.340,161.428 243.842,163.981 245.507 C 165.422 246.446,166.992 247.317,167.471 247.443 C 167.950 247.569,168.433 247.909,168.544 248.198 C 168.655 248.488,169.298 248.846,169.973 248.994 C 170.648 249.142,171.200 249.426,171.200 249.624 C 171.200 249.822,171.695 250.104,172.300 250.251 C 172.905 250.397,174.030 250.834,174.800 251.221 C 177.718 252.689,179.854 253.520,181.400 253.791 C 182.280 253.945,183.198 254.235,183.440 254.435 C 183.683 254.635,184.763 254.906,185.840 255.038 C 186.918 255.169,188.520 255.534,189.400 255.848 C 196.880 258.518,212.807 255.292,217.629 250.130 C 223.355 243.998,223.439 234.936,217.821 229.524 C 215.910 227.683,211.777 224.800,211.049 224.800 C 210.759 224.800,210.107 224.440,209.600 224.000 C 209.093 223.560,208.426 223.200,208.118 223.200 C 207.810 223.200,206.848 222.840,205.979 222.400 C 205.111 221.960,203.689 221.240,202.821 220.800 C 201.952 220.360,200.953 220.000,200.600 220.000 C 199.993 220.000,199.340 219.710,195.321 217.658 C 194.397 217.186,193.294 216.800,192.870 216.800 C 192.445 216.800,191.883 216.542,191.621 216.226 C 191.359 215.910,190.572 215.530,189.872 215.381 C 189.173 215.233,188.330 214.878,188.000 214.593 C 187.670 214.308,186.643 213.873,185.717 213.626 C 184.791 213.380,183.926 213.003,183.793 212.789 C 183.661 212.575,183.282 212.400,182.952 212.400 C 182.422 212.400,178.955 210.967,177.150 210.003 C 176.792 209.812,174.992 209.071,173.150 208.358 C 171.307 207.644,169.530 206.836,169.200 206.561 C 168.870 206.287,168.105 205.939,167.500 205.788 C 166.895 205.637,166.400 205.355,166.400 205.162 C 166.400 204.969,165.815 204.534,165.100 204.195 C 163.245 203.316,162.114 202.627,161.271 201.864 C 160.867 201.499,160.401 201.200,160.234 201.200 C 159.584 201.200,150.400 192.611,150.400 192.004 C 150.400 191.850,149.941 191.201,149.379 190.562 C 147.733 188.688,146.028 186.051,145.753 184.954 C 145.612 184.394,145.255 183.843,144.959 183.729 C 144.664 183.616,144.304 182.865,144.160 182.061 C 144.016 181.258,143.667 180.330,143.383 180.000 C 143.100 179.670,142.736 178.680,142.575 177.800 C 142.415 176.920,142.042 175.510,141.747 174.666 C 140.111 169.982,140.278 155.960,142.032 150.698 C 142.455 149.433,142.800 148.150,142.800 147.847 C 142.800 147.545,143.070 147.074,143.400 146.800 C 143.730 146.526,144.003 145.919,144.006 145.451 C 144.009 144.983,144.268 144.150,144.582 143.600 C 144.895 143.050,145.432 142.060,145.775 141.400 C 146.426 140.146,146.771 139.609,149.400 135.749 C 150.947 133.478,156.946 127.200,157.570 127.200 C 157.738 127.200,158.204 126.837,158.605 126.394 C 159.482 125.425,163.362 122.789,164.898 122.119 C 165.504 121.855,166.000 121.450,166.000 121.219 C 166.000 120.989,166.315 120.799,166.700 120.797 C 167.085 120.796,167.940 120.437,168.600 120.000 C 169.260 119.563,170.091 119.204,170.446 119.203 C 170.801 119.201,171.550 118.840,172.109 118.400 C 172.669 117.960,173.458 117.594,173.863 117.586 C 174.268 117.579,175.320 117.225,176.200 116.800 C 177.080 116.375,178.250 116.020,178.800 116.011 C 179.350 116.002,180.328 115.720,180.973 115.383 C 181.618 115.047,183.508 114.582,185.173 114.351 C 186.838 114.120,189.100 113.678,190.200 113.369 C 192.757 112.650,210.334 112.800,212.178 113.556 M298.191 155.499 C 296.725 156.259,296.414 156.705,296.406 158.056 C 296.403 158.637,296.044 159.897,295.609 160.856 C 295.174 161.815,294.814 163.073,294.809 163.651 C 294.804 164.229,294.535 164.922,294.211 165.191 C 293.886 165.460,293.499 166.337,293.350 167.140 C 293.201 167.943,292.854 168.960,292.579 169.400 C 292.304 169.840,291.948 170.830,291.788 171.600 C 291.628 172.370,291.251 173.355,290.949 173.789 C 290.647 174.223,290.399 174.943,290.397 175.389 C 290.396 175.835,290.037 176.740,289.600 177.400 C 289.163 178.060,288.798 178.960,288.789 179.400 C 288.780 179.840,288.425 180.920,288.000 181.800 C 287.575 182.680,287.221 183.634,287.214 183.921 C 287.201 184.414,286.870 185.139,284.858 189.079 C 284.386 190.003,284.000 190.966,284.000 191.219 C 284.000 191.472,283.260 193.215,282.355 195.093 C 280.543 198.855,280.314 201.958,281.732 203.525 C 282.100 203.931,282.400 204.499,282.400 204.788 C 282.400 205.076,282.780 206.142,283.243 207.156 C 283.707 208.170,284.449 209.810,284.892 210.800 C 285.335 211.790,286.035 213.266,286.449 214.079 C 286.862 214.893,287.200 215.845,287.200 216.195 C 287.200 216.545,287.560 217.538,288.000 218.400 C 288.440 219.262,288.800 220.313,288.800 220.735 C 288.800 221.157,289.065 221.722,289.389 221.991 C 289.714 222.260,290.094 223.137,290.234 223.940 C 290.375 224.743,290.716 225.763,290.992 226.206 C 291.269 226.649,291.633 227.639,291.801 228.406 C 291.969 229.173,292.443 230.427,292.853 231.194 C 293.264 231.961,293.600 232.974,293.600 233.445 C 293.600 233.916,293.850 234.510,294.157 234.764 C 294.463 235.018,294.839 236.075,294.994 237.113 C 295.148 238.151,295.449 239.211,295.661 239.469 C 295.873 239.727,296.261 240.805,296.523 241.865 C 297.241 244.764,300.759 245.381,304.618 243.284 C 305.518 242.795,308.688 241.734,310.952 241.164 C 311.805 240.949,312.881 240.509,313.341 240.186 C 313.801 239.864,314.456 239.600,314.795 239.600 C 315.134 239.600,316.060 239.253,316.852 238.828 C 317.644 238.404,318.939 237.935,319.731 237.786 C 320.523 237.638,321.380 237.265,321.635 236.958 C 321.890 236.651,322.502 236.400,322.995 236.400 C 323.488 236.400,324.350 236.040,324.909 235.600 C 325.469 235.160,326.168 234.799,326.463 234.797 C 326.758 234.796,327.540 234.437,328.200 234.000 C 328.860 233.563,329.702 233.204,330.071 233.203 C 330.441 233.201,330.981 232.973,331.271 232.695 C 331.562 232.418,332.250 231.961,332.800 231.679 C 333.350 231.398,334.700 230.635,335.800 229.983 C 336.900 229.332,338.160 228.625,338.600 228.412 C 339.040 228.199,340.120 227.483,341.000 226.821 C 341.880 226.159,343.005 225.438,343.500 225.218 C 343.995 224.999,344.400 224.635,344.400 224.410 C 344.400 224.184,344.597 224.000,344.837 224.000 C 345.490 224.000,347.204 222.578,351.107 218.800 C 354.230 215.778,355.061 214.821,356.600 212.479 C 356.820 212.144,357.315 211.539,357.700 211.135 C 358.085 210.731,358.400 210.062,358.400 209.649 C 358.400 209.236,358.661 208.681,358.980 208.416 C 359.300 208.151,359.684 207.113,359.835 206.108 C 359.985 205.104,360.353 203.814,360.652 203.241 C 361.359 201.887,361.350 197.698,360.638 196.333 C 360.332 195.746,359.959 194.541,359.809 193.656 C 359.660 192.770,359.282 191.834,358.969 191.574 C 358.656 191.314,358.400 190.762,358.400 190.347 C 358.400 189.932,358.040 189.284,357.600 188.907 C 357.160 188.530,356.800 188.007,356.800 187.744 C 356.800 186.286,347.244 177.090,343.141 174.600 C 342.778 174.380,341.698 173.651,340.741 172.981 C 339.783 172.311,338.730 171.627,338.400 171.462 C 338.070 171.297,337.080 170.733,336.200 170.208 C 333.768 168.758,329.919 166.800,329.499 166.800 C 329.294 166.800,328.669 166.440,328.109 166.000 C 327.550 165.560,326.778 165.200,326.395 165.200 C 326.012 165.200,325.483 164.942,325.221 164.626 C 324.959 164.310,324.235 163.939,323.611 163.803 C 322.988 163.666,321.792 163.204,320.954 162.777 C 320.116 162.350,319.131 162.000,318.764 162.000 C 318.398 162.000,317.890 161.749,317.635 161.442 C 317.380 161.135,316.522 160.762,315.727 160.613 C 314.933 160.464,313.904 160.095,313.442 159.793 C 312.979 159.492,311.880 159.065,311.000 158.845 C 308.502 158.221,305.510 157.214,304.268 156.579 C 303.645 156.260,302.650 156.000,302.057 156.000 C 301.463 156.000,300.619 155.748,300.180 155.441 C 299.492 154.959,299.218 154.967,298.191 155.499 M100.200 155.600 C 99.760 155.789,98.947 155.956,98.394 155.972 C 97.841 155.987,96.716 156.360,95.896 156.800 C 95.075 157.240,93.997 157.601,93.501 157.602 C 93.006 157.604,92.097 157.867,91.483 158.188 C 90.869 158.508,89.750 158.886,88.997 159.027 C 88.244 159.168,87.420 159.535,87.165 159.842 C 86.910 160.149,86.312 160.400,85.836 160.400 C 85.359 160.400,84.284 160.750,83.446 161.177 C 82.608 161.604,81.365 162.076,80.684 162.226 C 80.003 162.375,79.197 162.746,78.894 163.049 C 78.591 163.352,78.065 163.600,77.726 163.600 C 77.387 163.600,76.454 163.957,75.654 164.393 C 74.855 164.829,73.750 165.369,73.200 165.592 C 72.650 165.815,71.930 166.161,71.600 166.360 C 71.270 166.560,69.830 167.289,68.400 167.982 C 66.970 168.674,65.260 169.592,64.600 170.021 C 63.940 170.450,62.950 171.028,62.400 171.305 C 61.850 171.582,60.609 172.347,59.643 173.005 C 58.676 173.662,57.590 174.380,57.228 174.600 C 56.527 175.027,56.074 175.389,54.242 176.989 C 53.604 177.545,52.949 178.000,52.784 178.000 C 52.348 178.000,46.055 184.339,45.280 185.559 C 44.916 186.132,44.390 186.744,44.110 186.920 C 43.829 187.096,43.600 187.488,43.600 187.791 C 43.600 188.095,43.362 188.581,43.071 188.872 C 42.209 189.734,40.400 193.593,40.400 194.569 C 40.400 195.066,40.140 196.336,39.823 197.390 C 39.198 199.468,39.892 205.231,40.981 207.000 C 41.252 207.440,41.599 208.309,41.752 208.931 C 41.906 209.554,42.744 210.965,43.615 212.067 C 44.487 213.170,45.200 214.234,45.200 214.433 C 45.200 214.973,52.780 222.400,53.332 222.400 C 53.593 222.400,54.032 222.760,54.307 223.200 C 54.582 223.640,55.060 224.000,55.370 224.000 C 55.680 224.000,55.993 224.138,56.067 224.306 C 56.299 224.839,59.735 227.200,60.279 227.200 C 60.565 227.200,60.800 227.389,60.800 227.620 C 60.800 227.852,61.385 228.304,62.100 228.626 C 63.491 229.253,64.363 229.747,66.084 230.884 C 66.680 231.278,67.417 231.600,67.722 231.600 C 68.027 231.600,68.602 231.960,69.000 232.400 C 69.398 232.840,70.101 233.204,70.562 233.209 C 71.023 233.214,71.850 233.570,72.400 234.000 C 72.950 234.430,73.693 234.786,74.051 234.791 C 74.409 234.796,74.910 235.050,75.163 235.356 C 75.417 235.661,76.429 236.114,77.412 236.361 C 78.395 236.609,79.200 236.973,79.200 237.171 C 79.200 237.368,79.910 237.650,80.777 237.796 C 81.644 237.943,82.551 238.300,82.791 238.589 C 83.032 238.879,83.817 239.227,84.537 239.362 C 85.256 239.497,86.548 239.966,87.407 240.404 C 88.266 240.842,89.300 241.200,89.704 241.200 C 90.109 241.200,90.932 241.455,91.534 241.766 C 92.135 242.077,93.341 242.460,94.214 242.616 C 95.086 242.773,96.070 243.115,96.400 243.376 C 97.172 243.987,101.718 244.883,102.508 244.580 C 103.116 244.347,105.206 239.183,105.202 237.924 C 105.201 237.552,105.355 237.151,105.544 237.034 C 105.734 236.917,106.191 235.743,106.561 234.424 C 106.931 233.105,107.391 231.929,107.582 231.811 C 107.774 231.693,108.059 230.836,108.216 229.907 C 108.373 228.978,108.735 227.854,109.021 227.409 C 109.307 226.964,109.663 225.931,109.812 225.114 C 109.962 224.297,110.335 223.420,110.642 223.165 C 110.949 222.910,111.200 222.316,111.200 221.845 C 111.200 221.374,111.560 220.316,112.000 219.496 C 112.440 218.675,112.800 217.797,112.800 217.545 C 112.800 217.294,113.180 216.258,113.643 215.244 C 115.207 211.826,115.913 210.210,116.809 208.000 C 117.299 206.790,118.339 204.482,119.119 202.871 C 120.501 200.020,120.521 199.913,119.869 198.810 C 119.501 198.186,119.200 197.414,119.200 197.092 C 119.200 196.771,118.840 196.050,118.400 195.491 C 117.960 194.931,117.599 194.142,117.597 193.737 C 117.596 193.332,117.237 192.460,116.800 191.800 C 116.363 191.140,116.004 190.298,116.003 189.929 C 116.001 189.559,115.728 188.985,115.395 188.652 C 115.062 188.319,114.677 187.451,114.540 186.723 C 114.402 185.995,114.062 185.130,113.782 184.800 C 113.503 184.470,113.073 183.443,112.826 182.517 C 112.580 181.591,112.219 180.735,112.024 180.615 C 111.829 180.494,111.550 179.687,111.404 178.821 C 111.257 177.955,110.896 177.045,110.600 176.800 C 110.304 176.555,109.945 175.661,109.802 174.814 C 109.659 173.967,109.291 172.942,108.984 172.537 C 108.677 172.132,108.420 171.433,108.413 170.985 C 108.406 170.536,108.040 169.463,107.600 168.600 C 107.160 167.737,106.800 166.661,106.800 166.209 C 106.800 165.758,106.466 164.761,106.059 163.994 C 105.651 163.227,105.194 161.933,105.044 161.117 C 104.893 160.301,104.508 159.131,104.188 158.517 C 103.867 157.903,103.604 157.188,103.602 156.929 C 103.595 155.587,101.832 154.899,100.200 155.600 " stroke="none" fill="#fff" fill-rule="evenodd"></path></g></svg>