<?xml version="1.0" encoding="UTF-8"?>
<svg width="574px" height="59px" viewBox="0 0 574 59" version="1.1" xmlns="http://www.w3.org/2000/svg" xmlns:xlink="http://www.w3.org/1999/xlink">
    <!-- Generator: Sketch 57.1 (83088) - https://sketch.com -->
    <title>Group</title>
    <desc>Created with Sketch.</desc>
    <defs>
        <radialGradient cx="6.58451236%" cy="50%" fx="6.58451236%" fy="50%" r="277.7683%" gradientTransform="translate(0.065845,0.500000),scale(0.299003,1.000000),scale(1.000000,1.520808),translate(-0.065845,-0.500000)" id="radialGradient-1">
            <stop stop-color="#CB45FE" offset="0%"></stop>
            <stop stop-color="#415EFF" offset="100%"></stop>
            <stop stop-color="#415EFF" offset="100%"></stop>
        </radialGradient>
        <radialGradient cx="7.5170335%" cy="50%" fx="7.5170335%" fy="50%" r="244.796794%" gradientTransform="translate(0.075170,0.500000),scale(0.426080,1.000000),rotate(1.569229),scale(1.000000,3.226581),translate(-0.075170,-0.500000)" id="radialGradient-2">
            <stop stop-color="#FE559C" offset="0%"></stop>
            <stop stop-color="#D957AF" offset="24.7809333%"></stop>
            <stop stop-color="#415EFF" offset="100%"></stop>
            <stop stop-color="#415EFF" offset="100%"></stop>
        </radialGradient>
        <radialGradient cx="6.58451236%" cy="50%" fx="6.58451236%" fy="50%" r="128.014386%" gradientTransform="translate(0.065845,0.500000),scale(1.000000,0.997466),scale(1.000000,0.865003),translate(-0.065845,-0.500000)" id="radialGradient-3">
            <stop stop-color="#FE6A55" offset="0%"></stop>
            <stop stop-color="#FE6A55" offset="56.0618553%"></stop>
            <stop stop-color="#415EFF" offset="100%"></stop>
            <stop stop-color="#415EFF" offset="100%"></stop>
        </radialGradient>
    </defs>
    <g id="Page-1" stroke="none" stroke-width="1" fill="none" fill-rule="evenodd">
        <g id="1" transform="translate(-349.000000, -498.000000)">
            <g id="Group" transform="translate(349.000000, 498.000000)">
                <g id="Group-2-Copy" transform="translate(0.000000, 0.719512)">
                    <rect id="Rectangle" fill="url(#radialGradient-1)" x="-1.27897692e-13" y="9.84101689e-13" width="55.1221805" height="16.4817073" rx="8.24085366"></rect>
                    <rect id="Rectangle-Copy-15" fill="url(#radialGradient-2)" x="2.13162821e-13" y="20.3597561" width="38.6822319" height="16.4817073" rx="8.24085366"></rect>
                    <ellipse id="Oval" fill="url(#radialGradient-3)" cx="8.21997428" cy="48.9603659" rx="8.21997428" ry="8.24085366"></ellipse>
                </g>
                <path d="M93.6332401,42.7215505 L84.8860815,42.7215505 L84.8860815,57.9207317 L68.8496241,57.9207317 L68.8496241,0.719512195 L94.767131,0.719512195 C99.8966632,0.719512195 104.35119,1.57752191 108.130846,3.29356707 C111.910501,5.00961224 114.826191,7.46106856 116.878004,10.6480096 C118.929817,13.8349506 119.955708,17.5802311 119.955708,21.8839634 C119.955708,26.0242629 118.99731,29.6333513 117.080485,32.7113371 C115.163659,35.7893229 112.42345,38.1999216 108.859775,39.9432056 L121.089599,57.9207317 L103.919251,57.9207317 L93.6332401,42.7215505 Z M101.994987,21.0852171 C101.994987,18.5054898 101.196101,16.5049149 99.5983037,15.0834325 C98.0005065,13.6619501 95.6296173,12.9512195 92.4855648,12.9512195 L83.981203,12.9512195 L83.981203,29.1402439 L92.4855648,29.1402439 C95.6296173,29.1402439 98.0005065,28.442675 99.5983037,27.0475164 C101.196101,25.6523577 101.994987,23.6649445 101.994987,21.0852171 Z M172.235911,46.8073519 L148.523221,46.8073519 L144.117146,57.9207317 L127.934837,57.9207317 L152.688964,0.719512195 L168.3105,0.719512195 L193.144737,57.9207317 L176.641986,57.9207317 L172.235911,46.8073519 Z M167.204887,34.1768293 L160.179511,16.1890244 L153.154135,34.1768293 L167.204887,34.1768293 Z M258.354637,0.719512195 L258.354637,57.9207317 L245.128299,57.9207317 L220.055059,27.4406533 L220.055059,57.9207317 L204.313283,57.9207317 L204.313283,0.719512195 L217.53962,0.719512195 L242.612861,31.1995906 L242.612861,0.719512195 L258.354637,0.719512195 Z M273.287594,0.719512195 L299.879632,0.719512195 C306.038947,0.719512195 311.501909,1.89076355 316.268683,4.23330139 C321.035457,6.57583924 324.730991,9.89892447 327.355394,14.2026568 C329.979798,18.5063891 331.29198,23.5454938 331.29198,29.320122 C331.29198,35.0947501 329.979798,40.1338548 327.355394,44.4375871 C324.730991,48.7413194 321.035457,52.0644047 316.268683,54.4069425 C311.501909,56.7494804 306.038947,57.9207317 299.879632,57.9207317 L273.287594,57.9207317 L273.287594,0.719512195 Z M516,0.719512195 L542.592038,0.719512195 C548.751353,0.719512195 554.214315,1.89076355 558.981089,4.23330139 C563.747863,6.57583924 567.443397,9.89892447 570.0678,14.2026568 C572.692204,18.5063891 574.004386,23.5454938 574.004386,29.320122 C574.004386,35.0947501 572.692204,40.1338548 570.0678,44.4375871 C567.443397,48.7413194 563.747863,52.0644047 558.981089,54.4069425 C554.214315,56.7494804 548.751353,57.9207317 542.592038,57.9207317 L516,57.9207317 L516,0.719512195 Z M298.565826,44.9695122 C303.436244,44.9695122 307.346049,43.5520499 310.295357,40.7170827 C313.244666,37.8821155 314.719298,33.9632491 314.719298,28.9603659 C314.719298,23.9574826 313.244666,20.0386162 310.295357,17.203649 C307.346049,14.3686818 303.436244,12.9512195 298.565826,12.9512195 L288.419173,12.9512195 L288.419173,44.9695122 L298.565826,44.9695122 Z M541.278232,44.9695122 C546.14865,44.9695122 550.058455,43.5520499 553.007763,40.7170827 C555.957072,37.8821155 557.431704,33.9632491 557.431704,28.9603659 C557.431704,23.9574826 555.957072,20.0386162 553.007763,17.203649 C550.058455,14.3686818 546.14865,12.9512195 541.278232,12.9512195 L531.131579,12.9512195 L531.131579,44.9695122 L541.278232,44.9695122 Z M370.126348,42.7215505 L361.379189,42.7215505 L361.379189,57.9207317 L345.342732,57.9207317 L345.342732,0.719512195 L371.260239,0.719512195 C376.389771,0.719512195 380.844298,1.57752191 384.623953,3.29356707 C388.403609,5.00961224 391.319299,7.46106856 393.371112,10.6480096 C395.422925,13.8349506 396.448816,17.5802311 396.448816,21.8839634 C396.448816,26.0242629 395.490418,29.6333513 393.573592,32.7113371 C391.656767,35.7893229 388.916558,38.1999216 385.352883,39.9432056 L397.582707,57.9207317 L380.412358,57.9207317 L370.126348,42.7215505 Z M379.568922,21.0852171 C379.568922,18.5054898 378.770036,16.5049149 377.172239,15.0834325 C375.574441,13.6619501 373.203552,12.9512195 370.0595,12.9512195 L361.555138,12.9512195 L361.555138,29.1402439 L370.0595,29.1402439 C373.203552,29.1402439 375.574441,28.442675 377.172239,27.0475164 C378.770036,25.6523577 379.568922,23.6649445 379.568922,21.0852171 Z M439.635652,59 C433.707281,59 428.379838,57.7303241 423.653164,55.1909341 C418.926491,52.6515441 415.214638,49.1396744 412.517497,44.6552198 C409.820355,40.1707651 408.471805,35.1190757 408.471805,29.5 C408.471805,23.8809243 409.820355,18.8292349 412.517497,14.3447802 C415.214638,9.86032556 418.926491,6.34845592 423.653164,3.80906593 C428.379838,1.26967595 433.707281,-7.10542736e-15 439.635652,-7.10542736e-15 C445.564022,-7.10542736e-15 450.891465,1.26967595 455.618139,3.80906593 C460.344813,6.34845592 464.056665,9.86032556 466.753807,14.3447802 C469.450948,18.8292349 470.799499,23.8809243 470.799499,29.5 C470.799499,35.1190757 469.450948,40.1707651 466.753807,44.6552198 C464.056665,49.1396744 460.344813,52.6515441 455.618139,55.1909341 C450.891465,57.7303241 445.564022,59 439.635652,59 Z M439.734962,45.6890244 C442.563808,45.6890244 445.125743,44.9994988 447.420844,43.6204268 C449.715945,42.2413549 451.530649,40.2968926 452.86501,37.7869817 C454.199371,35.2770708 454.866541,32.3948537 454.866541,29.1402439 C454.866541,25.8856341 454.199371,23.003417 452.86501,20.4935061 C451.530649,17.9835952 449.715945,16.0391329 447.420844,14.660061 C445.125743,13.280989 442.563808,12.5914634 439.734962,12.5914634 C436.906117,12.5914634 434.344182,13.280989 432.049081,14.660061 C429.75398,16.0391329 427.939276,17.9835952 426.604915,20.4935061 C425.270554,23.003417 424.603383,25.8856341 424.603383,29.1402439 C424.603383,32.3948537 425.270554,35.2770708 426.604915,37.7869817 C427.939276,40.2968926 429.75398,42.2413549 432.049081,43.6204268 C434.344182,44.9994988 436.906117,45.6890244 439.734962,45.6890244 Z M484.850251,0.719512195 L501.062657,0.719512195 L501.062657,57.9207317 L484.850251,57.9207317 L484.850251,0.719512195 Z" id="FRANDROID-Copy-9" fill="#415EFF" fill-rule="nonzero"></path>
            </g>
        </g>
    </g>
</svg>